solid ascii
facet normal 0.0 0.0 1.0
  outer loop
    vertex      -5.275000E-02   -5.250000E-03    0.000000E+00
    vertex       5.250000E-02   -5.250000E-03    0.000000E+00
    vertex       5.250000E-02   -5.000000E-03    0.000000E+00
  endloop
endfacet
facet normal 0.0 0.0 1.0
  outer loop
    vertex      -5.275000E-02   -5.250000E-03    0.000000E+00
    vertex       5.250000E-02   -5.000000E-03    0.000000E+00
    vertex      -5.275000E-02   -5.000000E-03    0.000000E+00
  endloop
endfacet
facet normal 0.0 0.0 1.0
  outer loop
    vertex      -5.275000E-02    4.750000E-03    0.000000E+00
    vertex       5.250000E-02    4.750000E-03    0.000000E+00
    vertex       5.250000E-02    5.000000E-03    0.000000E+00
  endloop
endfacet
facet normal 0.0 0.0 1.0
  outer loop
    vertex      -5.275000E-02    4.750000E-03    0.000000E+00
    vertex       5.250000E-02    5.000000E-03    0.000000E+00
    vertex      -5.275000E-02    5.000000E-03    0.000000E+00
  endloop
endfacet
facet normal 0.0 0.0 1.0
  outer loop
    vertex      -5.250000E-02   -6.250000E-03    0.000000E+00
    vertex       5.225000E-02   -6.250000E-03    0.000000E+00
    vertex       5.225000E-02   -5.250000E-03    0.000000E+00
  endloop
endfacet
facet normal 0.0 0.0 1.0
  outer loop
    vertex      -5.250000E-02   -6.250000E-03    0.000000E+00
    vertex       5.225000E-02   -5.250000E-03    0.000000E+00
    vertex      -5.250000E-02   -5.250000E-03    0.000000E+00
  endloop
endfacet
facet normal 0.0 0.0 1.0
  outer loop
    vertex      -5.250000E-02   -5.000000E-03    0.000000E+00
    vertex       5.225000E-02   -5.000000E-03    0.000000E+00
    vertex       5.225000E-02   -4.000000E-03    0.000000E+00
  endloop
endfacet
facet normal 0.0 0.0 1.0
  outer loop
    vertex      -5.250000E-02   -5.000000E-03    0.000000E+00
    vertex       5.225000E-02   -4.000000E-03    0.000000E+00
    vertex      -5.250000E-02   -4.000000E-03    0.000000E+00
  endloop
endfacet
facet normal 0.0 0.0 1.0
  outer loop
    vertex      -5.250000E-02    3.750000E-03    0.000000E+00
    vertex       5.225000E-02    3.750000E-03    0.000000E+00
    vertex       5.225000E-02    4.750000E-03    0.000000E+00
  endloop
endfacet
facet normal 0.0 0.0 1.0
  outer loop
    vertex      -5.250000E-02    3.750000E-03    0.000000E+00
    vertex       5.225000E-02    4.750000E-03    0.000000E+00
    vertex      -5.250000E-02    4.750000E-03    0.000000E+00
  endloop
endfacet
facet normal 0.0 0.0 1.0
  outer loop
    vertex      -5.250000E-02    5.000000E-03    0.000000E+00
    vertex       5.225000E-02    5.000000E-03    0.000000E+00
    vertex       5.225000E-02    6.000000E-03    0.000000E+00
  endloop
endfacet
facet normal 0.0 0.0 1.0
  outer loop
    vertex      -5.250000E-02    5.000000E-03    0.000000E+00
    vertex       5.225000E-02    6.000000E-03    0.000000E+00
    vertex      -5.250000E-02    6.000000E-03    0.000000E+00
  endloop
endfacet
facet normal 0.0 0.0 1.0
  outer loop
    vertex      -5.225000E-02   -6.750000E-03    0.000000E+00
    vertex      -4.800000E-02   -6.750000E-03    0.000000E+00
    vertex      -4.800000E-02   -6.250000E-03    0.000000E+00
  endloop
endfacet
facet normal 0.0 0.0 1.0
  outer loop
    vertex      -5.225000E-02   -6.750000E-03    0.000000E+00
    vertex      -4.800000E-02   -6.250000E-03    0.000000E+00
    vertex      -5.225000E-02   -6.250000E-03    0.000000E+00
  endloop
endfacet
facet normal 0.0 0.0 1.0
  outer loop
    vertex      -5.225000E-02   -4.000000E-03    0.000000E+00
    vertex      -4.800000E-02   -4.000000E-03    0.000000E+00
    vertex      -4.800000E-02   -3.500000E-03    0.000000E+00
  endloop
endfacet
facet normal 0.0 0.0 1.0
  outer loop
    vertex      -5.225000E-02   -4.000000E-03    0.000000E+00
    vertex      -4.800000E-02   -3.500000E-03    0.000000E+00
    vertex      -5.225000E-02   -3.500000E-03    0.000000E+00
  endloop
endfacet
facet normal 0.0 0.0 1.0
  outer loop
    vertex      -5.225000E-02    3.250000E-03    0.000000E+00
    vertex      -4.800000E-02    3.250000E-03    0.000000E+00
    vertex      -4.800000E-02    3.750000E-03    0.000000E+00
  endloop
endfacet
facet normal 0.0 0.0 1.0
  outer loop
    vertex      -5.225000E-02    3.250000E-03    0.000000E+00
    vertex      -4.800000E-02    3.750000E-03    0.000000E+00
    vertex      -5.225000E-02    3.750000E-03    0.000000E+00
  endloop
endfacet
facet normal 0.0 0.0 1.0
  outer loop
    vertex      -5.225000E-02    6.000000E-03    0.000000E+00
    vertex      -4.800000E-02    6.000000E-03    0.000000E+00
    vertex      -4.800000E-02    6.500000E-03    0.000000E+00
  endloop
endfacet
facet normal 0.0 0.0 1.0
  outer loop
    vertex      -5.225000E-02    6.000000E-03    0.000000E+00
    vertex      -4.800000E-02    6.500000E-03    0.000000E+00
    vertex      -5.225000E-02    6.500000E-03    0.000000E+00
  endloop
endfacet
facet normal 0.0 0.0 1.0
  outer loop
    vertex      -5.200000E-02   -7.000000E-03    0.000000E+00
    vertex      -4.825000E-02   -7.000000E-03    0.000000E+00
    vertex      -4.825000E-02   -6.750000E-03    0.000000E+00
  endloop
endfacet
facet normal 0.0 0.0 1.0
  outer loop
    vertex      -5.200000E-02   -7.000000E-03    0.000000E+00
    vertex      -4.825000E-02   -6.750000E-03    0.000000E+00
    vertex      -5.200000E-02   -6.750000E-03    0.000000E+00
  endloop
endfacet
facet normal 0.0 0.0 1.0
  outer loop
    vertex      -5.200000E-02   -3.500000E-03    0.000000E+00
    vertex      -4.825000E-02   -3.500000E-03    0.000000E+00
    vertex      -4.825000E-02   -3.250000E-03    0.000000E+00
  endloop
endfacet
facet normal 0.0 0.0 1.0
  outer loop
    vertex      -5.200000E-02   -3.500000E-03    0.000000E+00
    vertex      -4.825000E-02   -3.250000E-03    0.000000E+00
    vertex      -5.200000E-02   -3.250000E-03    0.000000E+00
  endloop
endfacet
facet normal 0.0 0.0 1.0
  outer loop
    vertex      -5.200000E-02    3.000000E-03    0.000000E+00
    vertex      -4.825000E-02    3.000000E-03    0.000000E+00
    vertex      -4.825000E-02    3.250000E-03    0.000000E+00
  endloop
endfacet
facet normal 0.0 0.0 1.0
  outer loop
    vertex      -5.200000E-02    3.000000E-03    0.000000E+00
    vertex      -4.825000E-02    3.250000E-03    0.000000E+00
    vertex      -5.200000E-02    3.250000E-03    0.000000E+00
  endloop
endfacet
facet normal 0.0 0.0 1.0
  outer loop
    vertex      -5.200000E-02    6.500000E-03    0.000000E+00
    vertex      -4.825000E-02    6.500000E-03    0.000000E+00
    vertex      -4.825000E-02    6.750000E-03    0.000000E+00
  endloop
endfacet
facet normal 0.0 0.0 1.0
  outer loop
    vertex      -5.200000E-02    6.500000E-03    0.000000E+00
    vertex      -4.825000E-02    6.750000E-03    0.000000E+00
    vertex      -5.200000E-02    6.750000E-03    0.000000E+00
  endloop
endfacet
facet normal 0.0 0.0 1.0
  outer loop
    vertex      -5.175000E-02   -7.250000E-03    0.000000E+00
    vertex      -4.850000E-02   -7.250000E-03    0.000000E+00
    vertex      -4.850000E-02   -7.000000E-03    0.000000E+00
  endloop
endfacet
facet normal 0.0 0.0 1.0
  outer loop
    vertex      -5.175000E-02   -7.250000E-03    0.000000E+00
    vertex      -4.850000E-02   -7.000000E-03    0.000000E+00
    vertex      -5.175000E-02   -7.000000E-03    0.000000E+00
  endloop
endfacet
facet normal 0.0 0.0 1.0
  outer loop
    vertex      -5.175000E-02   -3.250000E-03    0.000000E+00
    vertex      -4.850000E-02   -3.250000E-03    0.000000E+00
    vertex      -4.850000E-02   -3.000000E-03    0.000000E+00
  endloop
endfacet
facet normal 0.0 0.0 1.0
  outer loop
    vertex      -5.175000E-02   -3.250000E-03    0.000000E+00
    vertex      -4.850000E-02   -3.000000E-03    0.000000E+00
    vertex      -5.175000E-02   -3.000000E-03    0.000000E+00
  endloop
endfacet
facet normal 0.0 0.0 1.0
  outer loop
    vertex      -5.175000E-02    2.750000E-03    0.000000E+00
    vertex      -4.850000E-02    2.750000E-03    0.000000E+00
    vertex      -4.850000E-02    3.000000E-03    0.000000E+00
  endloop
endfacet
facet normal 0.0 0.0 1.0
  outer loop
    vertex      -5.175000E-02    2.750000E-03    0.000000E+00
    vertex      -4.850000E-02    3.000000E-03    0.000000E+00
    vertex      -5.175000E-02    3.000000E-03    0.000000E+00
  endloop
endfacet
facet normal 0.0 0.0 1.0
  outer loop
    vertex      -5.175000E-02    6.750000E-03    0.000000E+00
    vertex      -4.850000E-02    6.750000E-03    0.000000E+00
    vertex      -4.850000E-02    7.000000E-03    0.000000E+00
  endloop
endfacet
facet normal 0.0 0.0 1.0
  outer loop
    vertex      -5.175000E-02    6.750000E-03    0.000000E+00
    vertex      -4.850000E-02    7.000000E-03    0.000000E+00
    vertex      -5.175000E-02    7.000000E-03    0.000000E+00
  endloop
endfacet
facet normal 0.0 0.0 1.0
  outer loop
    vertex      -5.125000E-02   -7.500000E-03    0.000000E+00
    vertex      -4.900000E-02   -7.500000E-03    0.000000E+00
    vertex      -4.900000E-02   -7.250000E-03    0.000000E+00
  endloop
endfacet
facet normal 0.0 0.0 1.0
  outer loop
    vertex      -5.125000E-02   -7.500000E-03    0.000000E+00
    vertex      -4.900000E-02   -7.250000E-03    0.000000E+00
    vertex      -5.125000E-02   -7.250000E-03    0.000000E+00
  endloop
endfacet
facet normal 0.0 0.0 1.0
  outer loop
    vertex      -5.125000E-02   -3.000000E-03    0.000000E+00
    vertex      -4.900000E-02   -3.000000E-03    0.000000E+00
    vertex      -4.900000E-02   -2.750000E-03    0.000000E+00
  endloop
endfacet
facet normal 0.0 0.0 1.0
  outer loop
    vertex      -5.125000E-02   -3.000000E-03    0.000000E+00
    vertex      -4.900000E-02   -2.750000E-03    0.000000E+00
    vertex      -5.125000E-02   -2.750000E-03    0.000000E+00
  endloop
endfacet
facet normal 0.0 0.0 1.0
  outer loop
    vertex      -5.125000E-02    2.500000E-03    0.000000E+00
    vertex      -4.900000E-02    2.500000E-03    0.000000E+00
    vertex      -4.900000E-02    2.750000E-03    0.000000E+00
  endloop
endfacet
facet normal 0.0 0.0 1.0
  outer loop
    vertex      -5.125000E-02    2.500000E-03    0.000000E+00
    vertex      -4.900000E-02    2.750000E-03    0.000000E+00
    vertex      -5.125000E-02    2.750000E-03    0.000000E+00
  endloop
endfacet
facet normal 0.0 0.0 1.0
  outer loop
    vertex      -5.125000E-02    7.000000E-03    0.000000E+00
    vertex      -4.900000E-02    7.000000E-03    0.000000E+00
    vertex      -4.900000E-02    7.250000E-03    0.000000E+00
  endloop
endfacet
facet normal 0.0 0.0 1.0
  outer loop
    vertex      -5.125000E-02    7.000000E-03    0.000000E+00
    vertex      -4.900000E-02    7.250000E-03    0.000000E+00
    vertex      -5.125000E-02    7.250000E-03    0.000000E+00
  endloop
endfacet
facet normal 0.0 0.0 1.0
  outer loop
    vertex      -5.025000E-02   -7.750000E-03    0.000000E+00
    vertex      -5.000000E-02   -7.750000E-03    0.000000E+00
    vertex      -5.000000E-02   -7.500000E-03    0.000000E+00
  endloop
endfacet
facet normal 0.0 0.0 1.0
  outer loop
    vertex      -5.025000E-02   -7.750000E-03    0.000000E+00
    vertex      -5.000000E-02   -7.500000E-03    0.000000E+00
    vertex      -5.025000E-02   -7.500000E-03    0.000000E+00
  endloop
endfacet
facet normal 0.0 0.0 1.0
  outer loop
    vertex      -5.025000E-02   -2.750000E-03    0.000000E+00
    vertex      -5.000000E-02   -2.750000E-03    0.000000E+00
    vertex      -5.000000E-02   -2.500000E-03    0.000000E+00
  endloop
endfacet
facet normal 0.0 0.0 1.0
  outer loop
    vertex      -5.025000E-02   -2.750000E-03    0.000000E+00
    vertex      -5.000000E-02   -2.500000E-03    0.000000E+00
    vertex      -5.025000E-02   -2.500000E-03    0.000000E+00
  endloop
endfacet
facet normal 0.0 0.0 1.0
  outer loop
    vertex      -5.025000E-02    2.250000E-03    0.000000E+00
    vertex      -5.000000E-02    2.250000E-03    0.000000E+00
    vertex      -5.000000E-02    2.500000E-03    0.000000E+00
  endloop
endfacet
facet normal 0.0 0.0 1.0
  outer loop
    vertex      -5.025000E-02    2.250000E-03    0.000000E+00
    vertex      -5.000000E-02    2.500000E-03    0.000000E+00
    vertex      -5.025000E-02    2.500000E-03    0.000000E+00
  endloop
endfacet
facet normal 0.0 0.0 1.0
  outer loop
    vertex      -5.025000E-02    7.250000E-03    0.000000E+00
    vertex      -5.000000E-02    7.250000E-03    0.000000E+00
    vertex      -5.000000E-02    7.500000E-03    0.000000E+00
  endloop
endfacet
facet normal 0.0 0.0 1.0
  outer loop
    vertex      -5.025000E-02    7.250000E-03    0.000000E+00
    vertex      -5.000000E-02    7.500000E-03    0.000000E+00
    vertex      -5.025000E-02    7.500000E-03    0.000000E+00
  endloop
endfacet
facet normal 0.0 0.0 1.0
  outer loop
    vertex       4.775000E-02   -6.750000E-03    0.000000E+00
    vertex       5.200000E-02   -6.750000E-03    0.000000E+00
    vertex       5.200000E-02   -6.250000E-03    0.000000E+00
  endloop
endfacet
facet normal 0.0 0.0 1.0
  outer loop
    vertex       4.775000E-02   -6.750000E-03    0.000000E+00
    vertex       5.200000E-02   -6.250000E-03    0.000000E+00
    vertex       4.775000E-02   -6.250000E-03    0.000000E+00
  endloop
endfacet
facet normal 0.0 0.0 1.0
  outer loop
    vertex       4.775000E-02   -4.000000E-03    0.000000E+00
    vertex       5.200000E-02   -4.000000E-03    0.000000E+00
    vertex       5.200000E-02   -3.500000E-03    0.000000E+00
  endloop
endfacet
facet normal 0.0 0.0 1.0
  outer loop
    vertex       4.775000E-02   -4.000000E-03    0.000000E+00
    vertex       5.200000E-02   -3.500000E-03    0.000000E+00
    vertex       4.775000E-02   -3.500000E-03    0.000000E+00
  endloop
endfacet
facet normal 0.0 0.0 1.0
  outer loop
    vertex       4.775000E-02    3.250000E-03    0.000000E+00
    vertex       5.200000E-02    3.250000E-03    0.000000E+00
    vertex       5.200000E-02    3.750000E-03    0.000000E+00
  endloop
endfacet
facet normal 0.0 0.0 1.0
  outer loop
    vertex       4.775000E-02    3.250000E-03    0.000000E+00
    vertex       5.200000E-02    3.750000E-03    0.000000E+00
    vertex       4.775000E-02    3.750000E-03    0.000000E+00
  endloop
endfacet
facet normal 0.0 0.0 1.0
  outer loop
    vertex       4.775000E-02    6.000000E-03    0.000000E+00
    vertex       5.200000E-02    6.000000E-03    0.000000E+00
    vertex       5.200000E-02    6.500000E-03    0.000000E+00
  endloop
endfacet
facet normal 0.0 0.0 1.0
  outer loop
    vertex       4.775000E-02    6.000000E-03    0.000000E+00
    vertex       5.200000E-02    6.500000E-03    0.000000E+00
    vertex       4.775000E-02    6.500000E-03    0.000000E+00
  endloop
endfacet
facet normal 0.0 0.0 1.0
  outer loop
    vertex       4.800000E-02   -7.000000E-03    0.000000E+00
    vertex       5.175000E-02   -7.000000E-03    0.000000E+00
    vertex       5.175000E-02   -6.750000E-03    0.000000E+00
  endloop
endfacet
facet normal 0.0 0.0 1.0
  outer loop
    vertex       4.800000E-02   -7.000000E-03    0.000000E+00
    vertex       5.175000E-02   -6.750000E-03    0.000000E+00
    vertex       4.800000E-02   -6.750000E-03    0.000000E+00
  endloop
endfacet
facet normal 0.0 0.0 1.0
  outer loop
    vertex       4.800000E-02   -3.500000E-03    0.000000E+00
    vertex       5.175000E-02   -3.500000E-03    0.000000E+00
    vertex       5.175000E-02   -3.250000E-03    0.000000E+00
  endloop
endfacet
facet normal 0.0 0.0 1.0
  outer loop
    vertex       4.800000E-02   -3.500000E-03    0.000000E+00
    vertex       5.175000E-02   -3.250000E-03    0.000000E+00
    vertex       4.800000E-02   -3.250000E-03    0.000000E+00
  endloop
endfacet
facet normal 0.0 0.0 1.0
  outer loop
    vertex       4.800000E-02    3.000000E-03    0.000000E+00
    vertex       5.175000E-02    3.000000E-03    0.000000E+00
    vertex       5.175000E-02    3.250000E-03    0.000000E+00
  endloop
endfacet
facet normal 0.0 0.0 1.0
  outer loop
    vertex       4.800000E-02    3.000000E-03    0.000000E+00
    vertex       5.175000E-02    3.250000E-03    0.000000E+00
    vertex       4.800000E-02    3.250000E-03    0.000000E+00
  endloop
endfacet
facet normal 0.0 0.0 1.0
  outer loop
    vertex       4.800000E-02    6.500000E-03    0.000000E+00
    vertex       5.175000E-02    6.500000E-03    0.000000E+00
    vertex       5.175000E-02    6.750000E-03    0.000000E+00
  endloop
endfacet
facet normal 0.0 0.0 1.0
  outer loop
    vertex       4.800000E-02    6.500000E-03    0.000000E+00
    vertex       5.175000E-02    6.750000E-03    0.000000E+00
    vertex       4.800000E-02    6.750000E-03    0.000000E+00
  endloop
endfacet
facet normal 0.0 0.0 1.0
  outer loop
    vertex       4.825000E-02   -7.250000E-03    0.000000E+00
    vertex       5.150000E-02   -7.250000E-03    0.000000E+00
    vertex       5.150000E-02   -7.000000E-03    0.000000E+00
  endloop
endfacet
facet normal 0.0 0.0 1.0
  outer loop
    vertex       4.825000E-02   -7.250000E-03    0.000000E+00
    vertex       5.150000E-02   -7.000000E-03    0.000000E+00
    vertex       4.825000E-02   -7.000000E-03    0.000000E+00
  endloop
endfacet
facet normal 0.0 0.0 1.0
  outer loop
    vertex       4.825000E-02   -3.250000E-03    0.000000E+00
    vertex       5.150000E-02   -3.250000E-03    0.000000E+00
    vertex       5.150000E-02   -3.000000E-03    0.000000E+00
  endloop
endfacet
facet normal 0.0 0.0 1.0
  outer loop
    vertex       4.825000E-02   -3.250000E-03    0.000000E+00
    vertex       5.150000E-02   -3.000000E-03    0.000000E+00
    vertex       4.825000E-02   -3.000000E-03    0.000000E+00
  endloop
endfacet
facet normal 0.0 0.0 1.0
  outer loop
    vertex       4.825000E-02    2.750000E-03    0.000000E+00
    vertex       5.150000E-02    2.750000E-03    0.000000E+00
    vertex       5.150000E-02    3.000000E-03    0.000000E+00
  endloop
endfacet
facet normal 0.0 0.0 1.0
  outer loop
    vertex       4.825000E-02    2.750000E-03    0.000000E+00
    vertex       5.150000E-02    3.000000E-03    0.000000E+00
    vertex       4.825000E-02    3.000000E-03    0.000000E+00
  endloop
endfacet
facet normal 0.0 0.0 1.0
  outer loop
    vertex       4.825000E-02    6.750000E-03    0.000000E+00
    vertex       5.150000E-02    6.750000E-03    0.000000E+00
    vertex       5.150000E-02    7.000000E-03    0.000000E+00
  endloop
endfacet
facet normal 0.0 0.0 1.0
  outer loop
    vertex       4.825000E-02    6.750000E-03    0.000000E+00
    vertex       5.150000E-02    7.000000E-03    0.000000E+00
    vertex       4.825000E-02    7.000000E-03    0.000000E+00
  endloop
endfacet
facet normal 0.0 0.0 1.0
  outer loop
    vertex       4.875000E-02   -7.500000E-03    0.000000E+00
    vertex       5.100000E-02   -7.500000E-03    0.000000E+00
    vertex       5.100000E-02   -7.250000E-03    0.000000E+00
  endloop
endfacet
facet normal 0.0 0.0 1.0
  outer loop
    vertex       4.875000E-02   -7.500000E-03    0.000000E+00
    vertex       5.100000E-02   -7.250000E-03    0.000000E+00
    vertex       4.875000E-02   -7.250000E-03    0.000000E+00
  endloop
endfacet
facet normal 0.0 0.0 1.0
  outer loop
    vertex       4.875000E-02   -3.000000E-03    0.000000E+00
    vertex       5.100000E-02   -3.000000E-03    0.000000E+00
    vertex       5.100000E-02   -2.750000E-03    0.000000E+00
  endloop
endfacet
facet normal 0.0 0.0 1.0
  outer loop
    vertex       4.875000E-02   -3.000000E-03    0.000000E+00
    vertex       5.100000E-02   -2.750000E-03    0.000000E+00
    vertex       4.875000E-02   -2.750000E-03    0.000000E+00
  endloop
endfacet
facet normal 0.0 0.0 1.0
  outer loop
    vertex       4.875000E-02    2.500000E-03    0.000000E+00
    vertex       5.100000E-02    2.500000E-03    0.000000E+00
    vertex       5.100000E-02    2.750000E-03    0.000000E+00
  endloop
endfacet
facet normal 0.0 0.0 1.0
  outer loop
    vertex       4.875000E-02    2.500000E-03    0.000000E+00
    vertex       5.100000E-02    2.750000E-03    0.000000E+00
    vertex       4.875000E-02    2.750000E-03    0.000000E+00
  endloop
endfacet
facet normal 0.0 0.0 1.0
  outer loop
    vertex       4.875000E-02    7.000000E-03    0.000000E+00
    vertex       5.100000E-02    7.000000E-03    0.000000E+00
    vertex       5.100000E-02    7.250000E-03    0.000000E+00
  endloop
endfacet
facet normal 0.0 0.0 1.0
  outer loop
    vertex       4.875000E-02    7.000000E-03    0.000000E+00
    vertex       5.100000E-02    7.250000E-03    0.000000E+00
    vertex       4.875000E-02    7.250000E-03    0.000000E+00
  endloop
endfacet
facet normal 0.0 0.0 1.0
  outer loop
    vertex       4.975000E-02   -7.750000E-03    0.000000E+00
    vertex       5.000000E-02   -7.750000E-03    0.000000E+00
    vertex       5.000000E-02   -7.500000E-03    0.000000E+00
  endloop
endfacet
facet normal 0.0 0.0 1.0
  outer loop
    vertex       4.975000E-02   -7.750000E-03    0.000000E+00
    vertex       5.000000E-02   -7.500000E-03    0.000000E+00
    vertex       4.975000E-02   -7.500000E-03    0.000000E+00
  endloop
endfacet
facet normal 0.0 0.0 1.0
  outer loop
    vertex       4.975000E-02   -2.750000E-03    0.000000E+00
    vertex       5.000000E-02   -2.750000E-03    0.000000E+00
    vertex       5.000000E-02   -2.500000E-03    0.000000E+00
  endloop
endfacet
facet normal 0.0 0.0 1.0
  outer loop
    vertex       4.975000E-02   -2.750000E-03    0.000000E+00
    vertex       5.000000E-02   -2.500000E-03    0.000000E+00
    vertex       4.975000E-02   -2.500000E-03    0.000000E+00
  endloop
endfacet
facet normal 0.0 0.0 1.0
  outer loop
    vertex       4.975000E-02    2.250000E-03    0.000000E+00
    vertex       5.000000E-02    2.250000E-03    0.000000E+00
    vertex       5.000000E-02    2.500000E-03    0.000000E+00
  endloop
endfacet
facet normal 0.0 0.0 1.0
  outer loop
    vertex       4.975000E-02    2.250000E-03    0.000000E+00
    vertex       5.000000E-02    2.500000E-03    0.000000E+00
    vertex       4.975000E-02    2.500000E-03    0.000000E+00
  endloop
endfacet
facet normal 0.0 0.0 1.0
  outer loop
    vertex       4.975000E-02    7.250000E-03    0.000000E+00
    vertex       5.000000E-02    7.250000E-03    0.000000E+00
    vertex       5.000000E-02    7.500000E-03    0.000000E+00
  endloop
endfacet
facet normal 0.0 0.0 1.0
  outer loop
    vertex       4.975000E-02    7.250000E-03    0.000000E+00
    vertex       5.000000E-02    7.500000E-03    0.000000E+00
    vertex       4.975000E-02    7.500000E-03    0.000000E+00
  endloop
endfacet
endsolid
