solid ascii
facet normal 0.0 0.0 1.0
  outer loop
    vertex      -1.725000E-02   -5.250000E-03    0.000000E+00
    vertex       1.700000E-02   -5.250000E-03    0.000000E+00
    vertex       1.700000E-02   -5.000000E-03    0.000000E+00
  endloop
endfacet
facet normal 0.0 0.0 1.0
  outer loop
    vertex      -1.725000E-02   -5.250000E-03    0.000000E+00
    vertex       1.700000E-02   -5.000000E-03    0.000000E+00
    vertex      -1.725000E-02   -5.000000E-03    0.000000E+00
  endloop
endfacet
facet normal 0.0 0.0 1.0
  outer loop
    vertex      -1.700000E-02   -6.000000E-03    0.000000E+00
    vertex       1.675000E-02   -6.000000E-03    0.000000E+00
    vertex       1.675000E-02   -5.250000E-03    0.000000E+00
  endloop
endfacet
facet normal 0.0 0.0 1.0
  outer loop
    vertex      -1.700000E-02   -6.000000E-03    0.000000E+00
    vertex       1.675000E-02   -5.250000E-03    0.000000E+00
    vertex      -1.700000E-02   -5.250000E-03    0.000000E+00
  endloop
endfacet
facet normal 0.0 0.0 1.0
  outer loop
    vertex      -1.700000E-02   -5.000000E-03    0.000000E+00
    vertex       1.675000E-02   -5.000000E-03    0.000000E+00
    vertex       1.675000E-02   -4.250000E-03    0.000000E+00
  endloop
endfacet
facet normal 0.0 0.0 1.0
  outer loop
    vertex      -1.700000E-02   -5.000000E-03    0.000000E+00
    vertex       1.675000E-02   -4.250000E-03    0.000000E+00
    vertex      -1.700000E-02   -4.250000E-03    0.000000E+00
  endloop
endfacet
facet normal 0.0 0.0 1.0
  outer loop
    vertex      -1.675000E-02   -6.500000E-03    0.000000E+00
    vertex      -1.350000E-02   -6.500000E-03    0.000000E+00
    vertex      -1.350000E-02   -6.000000E-03    0.000000E+00
  endloop
endfacet
facet normal 0.0 0.0 1.0
  outer loop
    vertex      -1.675000E-02   -6.500000E-03    0.000000E+00
    vertex      -1.350000E-02   -6.000000E-03    0.000000E+00
    vertex      -1.675000E-02   -6.000000E-03    0.000000E+00
  endloop
endfacet
facet normal 0.0 0.0 1.0
  outer loop
    vertex      -1.675000E-02   -4.250000E-03    0.000000E+00
    vertex      -1.350000E-02   -4.250000E-03    0.000000E+00
    vertex      -1.350000E-02   -3.750000E-03    0.000000E+00
  endloop
endfacet
facet normal 0.0 0.0 1.0
  outer loop
    vertex      -1.675000E-02   -4.250000E-03    0.000000E+00
    vertex      -1.350000E-02   -3.750000E-03    0.000000E+00
    vertex      -1.675000E-02   -3.750000E-03    0.000000E+00
  endloop
endfacet
facet normal 0.0 0.0 1.0
  outer loop
    vertex      -1.650000E-02   -6.750000E-03    0.000000E+00
    vertex      -1.375000E-02   -6.750000E-03    0.000000E+00
    vertex      -1.375000E-02   -6.500000E-03    0.000000E+00
  endloop
endfacet
facet normal 0.0 0.0 1.0
  outer loop
    vertex      -1.650000E-02   -6.750000E-03    0.000000E+00
    vertex      -1.375000E-02   -6.500000E-03    0.000000E+00
    vertex      -1.650000E-02   -6.500000E-03    0.000000E+00
  endloop
endfacet
facet normal 0.0 0.0 1.0
  outer loop
    vertex      -1.650000E-02   -3.750000E-03    0.000000E+00
    vertex      -1.375000E-02   -3.750000E-03    0.000000E+00
    vertex      -1.375000E-02   -3.500000E-03    0.000000E+00
  endloop
endfacet
facet normal 0.0 0.0 1.0
  outer loop
    vertex      -1.650000E-02   -3.750000E-03    0.000000E+00
    vertex      -1.375000E-02   -3.500000E-03    0.000000E+00
    vertex      -1.650000E-02   -3.500000E-03    0.000000E+00
  endloop
endfacet
facet normal 0.0 0.0 1.0
  outer loop
    vertex      -1.625000E-02    4.750000E-03    0.000000E+00
    vertex       1.700000E-02    4.750000E-03    0.000000E+00
    vertex       1.700000E-02    5.000000E-03    0.000000E+00
  endloop
endfacet
facet normal 0.0 0.0 1.0
  outer loop
    vertex      -1.625000E-02    4.750000E-03    0.000000E+00
    vertex       1.700000E-02    5.000000E-03    0.000000E+00
    vertex      -1.625000E-02    5.000000E-03    0.000000E+00
  endloop
endfacet
facet normal 0.0 0.0 1.0
  outer loop
    vertex      -1.600000E-02   -7.000000E-03    0.000000E+00
    vertex      -1.425000E-02   -7.000000E-03    0.000000E+00
    vertex      -1.425000E-02   -6.750000E-03    0.000000E+00
  endloop
endfacet
facet normal 0.0 0.0 1.0
  outer loop
    vertex      -1.600000E-02   -7.000000E-03    0.000000E+00
    vertex      -1.425000E-02   -6.750000E-03    0.000000E+00
    vertex      -1.600000E-02   -6.750000E-03    0.000000E+00
  endloop
endfacet
facet normal 0.0 0.0 1.0
  outer loop
    vertex      -1.600000E-02   -3.500000E-03    0.000000E+00
    vertex      -1.425000E-02   -3.500000E-03    0.000000E+00
    vertex      -1.425000E-02   -3.250000E-03    0.000000E+00
  endloop
endfacet
facet normal 0.0 0.0 1.0
  outer loop
    vertex      -1.600000E-02   -3.500000E-03    0.000000E+00
    vertex      -1.425000E-02   -3.250000E-03    0.000000E+00
    vertex      -1.600000E-02   -3.250000E-03    0.000000E+00
  endloop
endfacet
facet normal 0.0 0.0 1.0
  outer loop
    vertex      -1.600000E-02    4.250000E-03    0.000000E+00
    vertex       1.675000E-02    4.250000E-03    0.000000E+00
    vertex       1.675000E-02    4.750000E-03    0.000000E+00
  endloop
endfacet
facet normal 0.0 0.0 1.0
  outer loop
    vertex      -1.600000E-02    4.250000E-03    0.000000E+00
    vertex       1.675000E-02    4.750000E-03    0.000000E+00
    vertex      -1.600000E-02    4.750000E-03    0.000000E+00
  endloop
endfacet
facet normal 0.0 0.0 1.0
  outer loop
    vertex      -1.600000E-02    5.000000E-03    0.000000E+00
    vertex       1.675000E-02    5.000000E-03    0.000000E+00
    vertex       1.675000E-02    5.500000E-03    0.000000E+00
  endloop
endfacet
facet normal 0.0 0.0 1.0
  outer loop
    vertex      -1.600000E-02    5.000000E-03    0.000000E+00
    vertex       1.675000E-02    5.500000E-03    0.000000E+00
    vertex      -1.600000E-02    5.500000E-03    0.000000E+00
  endloop
endfacet
facet normal 0.0 0.0 1.0
  outer loop
    vertex      -1.575000E-02    4.000000E-03    0.000000E+00
    vertex       1.675000E-02    4.000000E-03    0.000000E+00
    vertex       1.675000E-02    4.250000E-03    0.000000E+00
  endloop
endfacet
facet normal 0.0 0.0 1.0
  outer loop
    vertex      -1.575000E-02    4.000000E-03    0.000000E+00
    vertex       1.675000E-02    4.250000E-03    0.000000E+00
    vertex      -1.575000E-02    4.250000E-03    0.000000E+00
  endloop
endfacet
facet normal 0.0 0.0 1.0
  outer loop
    vertex      -1.575000E-02    5.500000E-03    0.000000E+00
    vertex       1.675000E-02    5.500000E-03    0.000000E+00
    vertex       1.675000E-02    5.750000E-03    0.000000E+00
  endloop
endfacet
facet normal 0.0 0.0 1.0
  outer loop
    vertex      -1.575000E-02    5.500000E-03    0.000000E+00
    vertex       1.675000E-02    5.750000E-03    0.000000E+00
    vertex      -1.575000E-02    5.750000E-03    0.000000E+00
  endloop
endfacet
facet normal 0.0 0.0 1.0
  outer loop
    vertex      -1.525000E-02   -7.250000E-03    0.000000E+00
    vertex      -1.500000E-02   -7.250000E-03    0.000000E+00
    vertex      -1.500000E-02   -7.000000E-03    0.000000E+00
  endloop
endfacet
facet normal 0.0 0.0 1.0
  outer loop
    vertex      -1.525000E-02   -7.250000E-03    0.000000E+00
    vertex      -1.500000E-02   -7.000000E-03    0.000000E+00
    vertex      -1.525000E-02   -7.000000E-03    0.000000E+00
  endloop
endfacet
facet normal 0.0 0.0 1.0
  outer loop
    vertex      -1.525000E-02   -3.250000E-03    0.000000E+00
    vertex      -1.500000E-02   -3.250000E-03    0.000000E+00
    vertex      -1.500000E-02   -3.000000E-03    0.000000E+00
  endloop
endfacet
facet normal 0.0 0.0 1.0
  outer loop
    vertex      -1.525000E-02   -3.250000E-03    0.000000E+00
    vertex      -1.500000E-02   -3.000000E-03    0.000000E+00
    vertex      -1.525000E-02   -3.000000E-03    0.000000E+00
  endloop
endfacet
facet normal 0.0 0.0 1.0
  outer loop
    vertex      -1.525000E-02    3.750000E-03    0.000000E+00
    vertex       1.650000E-02    3.750000E-03    0.000000E+00
    vertex       1.650000E-02    4.000000E-03    0.000000E+00
  endloop
endfacet
facet normal 0.0 0.0 1.0
  outer loop
    vertex      -1.525000E-02    3.750000E-03    0.000000E+00
    vertex       1.650000E-02    4.000000E-03    0.000000E+00
    vertex      -1.525000E-02    4.000000E-03    0.000000E+00
  endloop
endfacet
facet normal 0.0 0.0 1.0
  outer loop
    vertex      -1.525000E-02    5.750000E-03    0.000000E+00
    vertex       1.650000E-02    5.750000E-03    0.000000E+00
    vertex       1.650000E-02    6.000000E-03    0.000000E+00
  endloop
endfacet
facet normal 0.0 0.0 1.0
  outer loop
    vertex      -1.525000E-02    5.750000E-03    0.000000E+00
    vertex       1.650000E-02    6.000000E-03    0.000000E+00
    vertex      -1.525000E-02    6.000000E-03    0.000000E+00
  endloop
endfacet
facet normal 0.0 0.0 1.0
  outer loop
    vertex      -1.350000E-02   -6.250000E-03    0.000000E+00
    vertex       1.650000E-02   -6.250000E-03    0.000000E+00
    vertex       1.650000E-02   -6.000000E-03    0.000000E+00
  endloop
endfacet
facet normal 0.0 0.0 1.0
  outer loop
    vertex      -1.350000E-02   -6.250000E-03    0.000000E+00
    vertex       1.650000E-02   -6.000000E-03    0.000000E+00
    vertex      -1.350000E-02   -6.000000E-03    0.000000E+00
  endloop
endfacet
facet normal 0.0 0.0 1.0
  outer loop
    vertex      -1.350000E-02   -4.250000E-03    0.000000E+00
    vertex       1.650000E-02   -4.250000E-03    0.000000E+00
    vertex       1.650000E-02   -4.000000E-03    0.000000E+00
  endloop
endfacet
facet normal 0.0 0.0 1.0
  outer loop
    vertex      -1.350000E-02   -4.250000E-03    0.000000E+00
    vertex       1.650000E-02   -4.000000E-03    0.000000E+00
    vertex      -1.350000E-02   -4.000000E-03    0.000000E+00
  endloop
endfacet
facet normal 0.0 0.0 1.0
  outer loop
    vertex       7.750000E-03   -2.500000E-04    0.000000E+00
    vertex       1.700000E-02   -2.500000E-04    0.000000E+00
    vertex       1.700000E-02   -2.980232E-11    0.000000E+00
  endloop
endfacet
facet normal 0.0 0.0 1.0
  outer loop
    vertex       7.750000E-03   -2.500000E-04    0.000000E+00
    vertex       1.700000E-02   -2.980232E-11    0.000000E+00
    vertex       7.750000E-03   -2.980232E-11    0.000000E+00
  endloop
endfacet
facet normal 0.0 0.0 1.0
  outer loop
    vertex       8.000000E-03   -1.000000E-03    0.000000E+00
    vertex       1.675000E-02   -1.000000E-03    0.000000E+00
    vertex       1.675000E-02   -2.500000E-04    0.000000E+00
  endloop
endfacet
facet normal 0.0 0.0 1.0
  outer loop
    vertex       8.000000E-03   -1.000000E-03    0.000000E+00
    vertex       1.675000E-02   -2.500000E-04    0.000000E+00
    vertex       8.000000E-03   -2.500000E-04    0.000000E+00
  endloop
endfacet
facet normal 0.0 0.0 1.0
  outer loop
    vertex       8.000000E-03   -2.980232E-11    0.000000E+00
    vertex       1.675000E-02   -2.980232E-11    0.000000E+00
    vertex       1.675000E-02    7.500000E-04    0.000000E+00
  endloop
endfacet
facet normal 0.0 0.0 1.0
  outer loop
    vertex       8.000000E-03   -2.980232E-11    0.000000E+00
    vertex       1.675000E-02    7.500000E-04    0.000000E+00
    vertex       8.000000E-03    7.500000E-04    0.000000E+00
  endloop
endfacet
facet normal 0.0 0.0 1.0
  outer loop
    vertex       8.250000E-03   -6.500000E-03    0.000000E+00
    vertex       1.150000E-02   -6.500000E-03    0.000000E+00
    vertex       1.150000E-02   -6.250000E-03    0.000000E+00
  endloop
endfacet
facet normal 0.0 0.0 1.0
  outer loop
    vertex       8.250000E-03   -6.500000E-03    0.000000E+00
    vertex       1.150000E-02   -6.250000E-03    0.000000E+00
    vertex       8.250000E-03   -6.250000E-03    0.000000E+00
  endloop
endfacet
facet normal 0.0 0.0 1.0
  outer loop
    vertex       8.250000E-03   -4.000000E-03    0.000000E+00
    vertex       1.150000E-02   -4.000000E-03    0.000000E+00
    vertex       1.150000E-02   -3.750000E-03    0.000000E+00
  endloop
endfacet
facet normal 0.0 0.0 1.0
  outer loop
    vertex       8.250000E-03   -4.000000E-03    0.000000E+00
    vertex       1.150000E-02   -3.750000E-03    0.000000E+00
    vertex       8.250000E-03   -3.750000E-03    0.000000E+00
  endloop
endfacet
facet normal 0.0 0.0 1.0
  outer loop
    vertex       8.250000E-03   -1.500000E-03    0.000000E+00
    vertex       1.150000E-02   -1.500000E-03    0.000000E+00
    vertex       1.150000E-02   -1.000000E-03    0.000000E+00
  endloop
endfacet
facet normal 0.0 0.0 1.0
  outer loop
    vertex       8.250000E-03   -1.500000E-03    0.000000E+00
    vertex       1.150000E-02   -1.000000E-03    0.000000E+00
    vertex       8.250000E-03   -1.000000E-03    0.000000E+00
  endloop
endfacet
facet normal 0.0 0.0 1.0
  outer loop
    vertex       8.250000E-03    7.500000E-04    0.000000E+00
    vertex       1.150000E-02    7.500000E-04    0.000000E+00
    vertex       1.150000E-02    1.250000E-03    0.000000E+00
  endloop
endfacet
facet normal 0.0 0.0 1.0
  outer loop
    vertex       8.250000E-03    7.500000E-04    0.000000E+00
    vertex       1.150000E-02    1.250000E-03    0.000000E+00
    vertex       8.250000E-03    1.250000E-03    0.000000E+00
  endloop
endfacet
facet normal 0.0 0.0 1.0
  outer loop
    vertex       8.250000E-03    3.500000E-03    0.000000E+00
    vertex       1.150000E-02    3.500000E-03    0.000000E+00
    vertex       1.150000E-02    3.750000E-03    0.000000E+00
  endloop
endfacet
facet normal 0.0 0.0 1.0
  outer loop
    vertex       8.250000E-03    3.500000E-03    0.000000E+00
    vertex       1.150000E-02    3.750000E-03    0.000000E+00
    vertex       8.250000E-03    3.750000E-03    0.000000E+00
  endloop
endfacet
facet normal 0.0 0.0 1.0
  outer loop
    vertex       8.250000E-03    6.000000E-03    0.000000E+00
    vertex       1.150000E-02    6.000000E-03    0.000000E+00
    vertex       1.150000E-02    6.250000E-03    0.000000E+00
  endloop
endfacet
facet normal 0.0 0.0 1.0
  outer loop
    vertex       8.250000E-03    6.000000E-03    0.000000E+00
    vertex       1.150000E-02    6.250000E-03    0.000000E+00
    vertex       8.250000E-03    6.250000E-03    0.000000E+00
  endloop
endfacet
facet normal 0.0 0.0 1.0
  outer loop
    vertex       8.500000E-03   -6.750000E-03    0.000000E+00
    vertex       1.125000E-02   -6.750000E-03    0.000000E+00
    vertex       1.125000E-02   -6.500000E-03    0.000000E+00
  endloop
endfacet
facet normal 0.0 0.0 1.0
  outer loop
    vertex       8.500000E-03   -6.750000E-03    0.000000E+00
    vertex       1.125000E-02   -6.500000E-03    0.000000E+00
    vertex       8.500000E-03   -6.500000E-03    0.000000E+00
  endloop
endfacet
facet normal 0.0 0.0 1.0
  outer loop
    vertex       8.500000E-03   -3.750000E-03    0.000000E+00
    vertex       1.125000E-02   -3.750000E-03    0.000000E+00
    vertex       1.125000E-02   -3.500000E-03    0.000000E+00
  endloop
endfacet
facet normal 0.0 0.0 1.0
  outer loop
    vertex       8.500000E-03   -3.750000E-03    0.000000E+00
    vertex       1.125000E-02   -3.500000E-03    0.000000E+00
    vertex       8.500000E-03   -3.500000E-03    0.000000E+00
  endloop
endfacet
facet normal 0.0 0.0 1.0
  outer loop
    vertex       8.500000E-03   -1.750000E-03    0.000000E+00
    vertex       1.125000E-02   -1.750000E-03    0.000000E+00
    vertex       1.125000E-02   -1.500000E-03    0.000000E+00
  endloop
endfacet
facet normal 0.0 0.0 1.0
  outer loop
    vertex       8.500000E-03   -1.750000E-03    0.000000E+00
    vertex       1.125000E-02   -1.500000E-03    0.000000E+00
    vertex       8.500000E-03   -1.500000E-03    0.000000E+00
  endloop
endfacet
facet normal 0.0 0.0 1.0
  outer loop
    vertex       8.500000E-03    1.250000E-03    0.000000E+00
    vertex       1.125000E-02    1.250000E-03    0.000000E+00
    vertex       1.125000E-02    1.500000E-03    0.000000E+00
  endloop
endfacet
facet normal 0.0 0.0 1.0
  outer loop
    vertex       8.500000E-03    1.250000E-03    0.000000E+00
    vertex       1.125000E-02    1.500000E-03    0.000000E+00
    vertex       8.500000E-03    1.500000E-03    0.000000E+00
  endloop
endfacet
facet normal 0.0 0.0 1.0
  outer loop
    vertex       8.500000E-03    3.250000E-03    0.000000E+00
    vertex       1.125000E-02    3.250000E-03    0.000000E+00
    vertex       1.125000E-02    3.500000E-03    0.000000E+00
  endloop
endfacet
facet normal 0.0 0.0 1.0
  outer loop
    vertex       8.500000E-03    3.250000E-03    0.000000E+00
    vertex       1.125000E-02    3.500000E-03    0.000000E+00
    vertex       8.500000E-03    3.500000E-03    0.000000E+00
  endloop
endfacet
facet normal 0.0 0.0 1.0
  outer loop
    vertex       8.500000E-03    6.250000E-03    0.000000E+00
    vertex       1.125000E-02    6.250000E-03    0.000000E+00
    vertex       1.125000E-02    6.500000E-03    0.000000E+00
  endloop
endfacet
facet normal 0.0 0.0 1.0
  outer loop
    vertex       8.500000E-03    6.250000E-03    0.000000E+00
    vertex       1.125000E-02    6.500000E-03    0.000000E+00
    vertex       8.500000E-03    6.500000E-03    0.000000E+00
  endloop
endfacet
facet normal 0.0 0.0 1.0
  outer loop
    vertex       9.000000E-03   -7.000000E-03    0.000000E+00
    vertex       1.075000E-02   -7.000000E-03    0.000000E+00
    vertex       1.075000E-02   -6.750000E-03    0.000000E+00
  endloop
endfacet
facet normal 0.0 0.0 1.0
  outer loop
    vertex       9.000000E-03   -7.000000E-03    0.000000E+00
    vertex       1.075000E-02   -6.750000E-03    0.000000E+00
    vertex       9.000000E-03   -6.750000E-03    0.000000E+00
  endloop
endfacet
facet normal 0.0 0.0 1.0
  outer loop
    vertex       9.000000E-03   -3.500000E-03    0.000000E+00
    vertex       1.075000E-02   -3.500000E-03    0.000000E+00
    vertex       1.075000E-02   -3.250000E-03    0.000000E+00
  endloop
endfacet
facet normal 0.0 0.0 1.0
  outer loop
    vertex       9.000000E-03   -3.500000E-03    0.000000E+00
    vertex       1.075000E-02   -3.250000E-03    0.000000E+00
    vertex       9.000000E-03   -3.250000E-03    0.000000E+00
  endloop
endfacet
facet normal 0.0 0.0 1.0
  outer loop
    vertex       9.000000E-03   -2.000000E-03    0.000000E+00
    vertex       1.075000E-02   -2.000000E-03    0.000000E+00
    vertex       1.075000E-02   -1.750000E-03    0.000000E+00
  endloop
endfacet
facet normal 0.0 0.0 1.0
  outer loop
    vertex       9.000000E-03   -2.000000E-03    0.000000E+00
    vertex       1.075000E-02   -1.750000E-03    0.000000E+00
    vertex       9.000000E-03   -1.750000E-03    0.000000E+00
  endloop
endfacet
facet normal 0.0 0.0 1.0
  outer loop
    vertex       9.000000E-03    1.500000E-03    0.000000E+00
    vertex       1.075000E-02    1.500000E-03    0.000000E+00
    vertex       1.075000E-02    1.750000E-03    0.000000E+00
  endloop
endfacet
facet normal 0.0 0.0 1.0
  outer loop
    vertex       9.000000E-03    1.500000E-03    0.000000E+00
    vertex       1.075000E-02    1.750000E-03    0.000000E+00
    vertex       9.000000E-03    1.750000E-03    0.000000E+00
  endloop
endfacet
facet normal 0.0 0.0 1.0
  outer loop
    vertex       9.000000E-03    3.000000E-03    0.000000E+00
    vertex       1.075000E-02    3.000000E-03    0.000000E+00
    vertex       1.075000E-02    3.250000E-03    0.000000E+00
  endloop
endfacet
facet normal 0.0 0.0 1.0
  outer loop
    vertex       9.000000E-03    3.000000E-03    0.000000E+00
    vertex       1.075000E-02    3.250000E-03    0.000000E+00
    vertex       9.000000E-03    3.250000E-03    0.000000E+00
  endloop
endfacet
facet normal 0.0 0.0 1.0
  outer loop
    vertex       9.000000E-03    6.500000E-03    0.000000E+00
    vertex       1.075000E-02    6.500000E-03    0.000000E+00
    vertex       1.075000E-02    6.750000E-03    0.000000E+00
  endloop
endfacet
facet normal 0.0 0.0 1.0
  outer loop
    vertex       9.000000E-03    6.500000E-03    0.000000E+00
    vertex       1.075000E-02    6.750000E-03    0.000000E+00
    vertex       9.000000E-03    6.750000E-03    0.000000E+00
  endloop
endfacet
facet normal 0.0 0.0 1.0
  outer loop
    vertex       9.750000E-03   -7.250000E-03    0.000000E+00
    vertex       1.000000E-02   -7.250000E-03    0.000000E+00
    vertex       1.000000E-02   -7.000000E-03    0.000000E+00
  endloop
endfacet
facet normal 0.0 0.0 1.0
  outer loop
    vertex       9.750000E-03   -7.250000E-03    0.000000E+00
    vertex       1.000000E-02   -7.000000E-03    0.000000E+00
    vertex       9.750000E-03   -7.000000E-03    0.000000E+00
  endloop
endfacet
facet normal 0.0 0.0 1.0
  outer loop
    vertex       9.750000E-03   -3.250000E-03    0.000000E+00
    vertex       1.000000E-02   -3.250000E-03    0.000000E+00
    vertex       1.000000E-02   -3.000000E-03    0.000000E+00
  endloop
endfacet
facet normal 0.0 0.0 1.0
  outer loop
    vertex       9.750000E-03   -3.250000E-03    0.000000E+00
    vertex       1.000000E-02   -3.000000E-03    0.000000E+00
    vertex       9.750000E-03   -3.000000E-03    0.000000E+00
  endloop
endfacet
facet normal 0.0 0.0 1.0
  outer loop
    vertex       9.750000E-03   -2.250000E-03    0.000000E+00
    vertex       1.000000E-02   -2.250000E-03    0.000000E+00
    vertex       1.000000E-02   -2.000000E-03    0.000000E+00
  endloop
endfacet
facet normal 0.0 0.0 1.0
  outer loop
    vertex       9.750000E-03   -2.250000E-03    0.000000E+00
    vertex       1.000000E-02   -2.000000E-03    0.000000E+00
    vertex       9.750000E-03   -2.000000E-03    0.000000E+00
  endloop
endfacet
facet normal 0.0 0.0 1.0
  outer loop
    vertex       9.750000E-03    1.750000E-03    0.000000E+00
    vertex       1.000000E-02    1.750000E-03    0.000000E+00
    vertex       1.000000E-02    2.000000E-03    0.000000E+00
  endloop
endfacet
facet normal 0.0 0.0 1.0
  outer loop
    vertex       9.750000E-03    1.750000E-03    0.000000E+00
    vertex       1.000000E-02    2.000000E-03    0.000000E+00
    vertex       9.750000E-03    2.000000E-03    0.000000E+00
  endloop
endfacet
facet normal 0.0 0.0 1.0
  outer loop
    vertex       9.750000E-03    2.750000E-03    0.000000E+00
    vertex       1.000000E-02    2.750000E-03    0.000000E+00
    vertex       1.000000E-02    3.000000E-03    0.000000E+00
  endloop
endfacet
facet normal 0.0 0.0 1.0
  outer loop
    vertex       9.750000E-03    2.750000E-03    0.000000E+00
    vertex       1.000000E-02    3.000000E-03    0.000000E+00
    vertex       9.750000E-03    3.000000E-03    0.000000E+00
  endloop
endfacet
facet normal 0.0 0.0 1.0
  outer loop
    vertex       9.750000E-03    6.750000E-03    0.000000E+00
    vertex       1.000000E-02    6.750000E-03    0.000000E+00
    vertex       1.000000E-02    7.000000E-03    0.000000E+00
  endloop
endfacet
facet normal 0.0 0.0 1.0
  outer loop
    vertex       9.750000E-03    6.750000E-03    0.000000E+00
    vertex       1.000000E-02    7.000000E-03    0.000000E+00
    vertex       9.750000E-03    7.000000E-03    0.000000E+00
  endloop
endfacet
facet normal 0.0 0.0 1.0
  outer loop
    vertex       1.150000E-02   -1.250000E-03    0.000000E+00
    vertex       1.650000E-02   -1.250000E-03    0.000000E+00
    vertex       1.650000E-02   -1.000000E-03    0.000000E+00
  endloop
endfacet
facet normal 0.0 0.0 1.0
  outer loop
    vertex       1.150000E-02   -1.250000E-03    0.000000E+00
    vertex       1.650000E-02   -1.000000E-03    0.000000E+00
    vertex       1.150000E-02   -1.000000E-03    0.000000E+00
  endloop
endfacet
facet normal 0.0 0.0 1.0
  outer loop
    vertex       1.150000E-02    7.500000E-04    0.000000E+00
    vertex       1.650000E-02    7.500000E-04    0.000000E+00
    vertex       1.650000E-02    1.000000E-03    0.000000E+00
  endloop
endfacet
facet normal 0.0 0.0 1.0
  outer loop
    vertex       1.150000E-02    7.500000E-04    0.000000E+00
    vertex       1.650000E-02    1.000000E-03    0.000000E+00
    vertex       1.150000E-02    1.000000E-03    0.000000E+00
  endloop
endfacet
facet normal 0.0 0.0 1.0
  outer loop
    vertex       1.325000E-02   -6.500000E-03    0.000000E+00
    vertex       1.650000E-02   -6.500000E-03    0.000000E+00
    vertex       1.650000E-02   -6.250000E-03    0.000000E+00
  endloop
endfacet
facet normal 0.0 0.0 1.0
  outer loop
    vertex       1.325000E-02   -6.500000E-03    0.000000E+00
    vertex       1.650000E-02   -6.250000E-03    0.000000E+00
    vertex       1.325000E-02   -6.250000E-03    0.000000E+00
  endloop
endfacet
facet normal 0.0 0.0 1.0
  outer loop
    vertex       1.325000E-02   -4.000000E-03    0.000000E+00
    vertex       1.650000E-02   -4.000000E-03    0.000000E+00
    vertex       1.650000E-02   -3.750000E-03    0.000000E+00
  endloop
endfacet
facet normal 0.0 0.0 1.0
  outer loop
    vertex       1.325000E-02   -4.000000E-03    0.000000E+00
    vertex       1.650000E-02   -3.750000E-03    0.000000E+00
    vertex       1.325000E-02   -3.750000E-03    0.000000E+00
  endloop
endfacet
facet normal 0.0 0.0 1.0
  outer loop
    vertex       1.325000E-02   -1.500000E-03    0.000000E+00
    vertex       1.650000E-02   -1.500000E-03    0.000000E+00
    vertex       1.650000E-02   -1.250000E-03    0.000000E+00
  endloop
endfacet
facet normal 0.0 0.0 1.0
  outer loop
    vertex       1.325000E-02   -1.500000E-03    0.000000E+00
    vertex       1.650000E-02   -1.250000E-03    0.000000E+00
    vertex       1.325000E-02   -1.250000E-03    0.000000E+00
  endloop
endfacet
facet normal 0.0 0.0 1.0
  outer loop
    vertex       1.325000E-02    1.000000E-03    0.000000E+00
    vertex       1.650000E-02    1.000000E-03    0.000000E+00
    vertex       1.650000E-02    1.250000E-03    0.000000E+00
  endloop
endfacet
facet normal 0.0 0.0 1.0
  outer loop
    vertex       1.325000E-02    1.000000E-03    0.000000E+00
    vertex       1.650000E-02    1.250000E-03    0.000000E+00
    vertex       1.325000E-02    1.250000E-03    0.000000E+00
  endloop
endfacet
facet normal 0.0 0.0 1.0
  outer loop
    vertex       1.325000E-02    3.500000E-03    0.000000E+00
    vertex       1.650000E-02    3.500000E-03    0.000000E+00
    vertex       1.650000E-02    3.750000E-03    0.000000E+00
  endloop
endfacet
facet normal 0.0 0.0 1.0
  outer loop
    vertex       1.325000E-02    3.500000E-03    0.000000E+00
    vertex       1.650000E-02    3.750000E-03    0.000000E+00
    vertex       1.325000E-02    3.750000E-03    0.000000E+00
  endloop
endfacet
facet normal 0.0 0.0 1.0
  outer loop
    vertex       1.325000E-02    6.000000E-03    0.000000E+00
    vertex       1.650000E-02    6.000000E-03    0.000000E+00
    vertex       1.650000E-02    6.250000E-03    0.000000E+00
  endloop
endfacet
facet normal 0.0 0.0 1.0
  outer loop
    vertex       1.325000E-02    6.000000E-03    0.000000E+00
    vertex       1.650000E-02    6.250000E-03    0.000000E+00
    vertex       1.325000E-02    6.250000E-03    0.000000E+00
  endloop
endfacet
facet normal 0.0 0.0 1.0
  outer loop
    vertex       1.350000E-02   -6.750000E-03    0.000000E+00
    vertex       1.625000E-02   -6.750000E-03    0.000000E+00
    vertex       1.625000E-02   -6.500000E-03    0.000000E+00
  endloop
endfacet
facet normal 0.0 0.0 1.0
  outer loop
    vertex       1.350000E-02   -6.750000E-03    0.000000E+00
    vertex       1.625000E-02   -6.500000E-03    0.000000E+00
    vertex       1.350000E-02   -6.500000E-03    0.000000E+00
  endloop
endfacet
facet normal 0.0 0.0 1.0
  outer loop
    vertex       1.350000E-02   -3.750000E-03    0.000000E+00
    vertex       1.625000E-02   -3.750000E-03    0.000000E+00
    vertex       1.625000E-02   -3.500000E-03    0.000000E+00
  endloop
endfacet
facet normal 0.0 0.0 1.0
  outer loop
    vertex       1.350000E-02   -3.750000E-03    0.000000E+00
    vertex       1.625000E-02   -3.500000E-03    0.000000E+00
    vertex       1.350000E-02   -3.500000E-03    0.000000E+00
  endloop
endfacet
facet normal 0.0 0.0 1.0
  outer loop
    vertex       1.350000E-02   -1.750000E-03    0.000000E+00
    vertex       1.625000E-02   -1.750000E-03    0.000000E+00
    vertex       1.625000E-02   -1.500000E-03    0.000000E+00
  endloop
endfacet
facet normal 0.0 0.0 1.0
  outer loop
    vertex       1.350000E-02   -1.750000E-03    0.000000E+00
    vertex       1.625000E-02   -1.500000E-03    0.000000E+00
    vertex       1.350000E-02   -1.500000E-03    0.000000E+00
  endloop
endfacet
facet normal 0.0 0.0 1.0
  outer loop
    vertex       1.350000E-02    1.250000E-03    0.000000E+00
    vertex       1.625000E-02    1.250000E-03    0.000000E+00
    vertex       1.625000E-02    1.500000E-03    0.000000E+00
  endloop
endfacet
facet normal 0.0 0.0 1.0
  outer loop
    vertex       1.350000E-02    1.250000E-03    0.000000E+00
    vertex       1.625000E-02    1.500000E-03    0.000000E+00
    vertex       1.350000E-02    1.500000E-03    0.000000E+00
  endloop
endfacet
facet normal 0.0 0.0 1.0
  outer loop
    vertex       1.350000E-02    3.250000E-03    0.000000E+00
    vertex       1.625000E-02    3.250000E-03    0.000000E+00
    vertex       1.625000E-02    3.500000E-03    0.000000E+00
  endloop
endfacet
facet normal 0.0 0.0 1.0
  outer loop
    vertex       1.350000E-02    3.250000E-03    0.000000E+00
    vertex       1.625000E-02    3.500000E-03    0.000000E+00
    vertex       1.350000E-02    3.500000E-03    0.000000E+00
  endloop
endfacet
facet normal 0.0 0.0 1.0
  outer loop
    vertex       1.350000E-02    6.250000E-03    0.000000E+00
    vertex       1.625000E-02    6.250000E-03    0.000000E+00
    vertex       1.625000E-02    6.500000E-03    0.000000E+00
  endloop
endfacet
facet normal 0.0 0.0 1.0
  outer loop
    vertex       1.350000E-02    6.250000E-03    0.000000E+00
    vertex       1.625000E-02    6.500000E-03    0.000000E+00
    vertex       1.350000E-02    6.500000E-03    0.000000E+00
  endloop
endfacet
facet normal 0.0 0.0 1.0
  outer loop
    vertex       1.400000E-02   -7.000000E-03    0.000000E+00
    vertex       1.575000E-02   -7.000000E-03    0.000000E+00
    vertex       1.575000E-02   -6.750000E-03    0.000000E+00
  endloop
endfacet
facet normal 0.0 0.0 1.0
  outer loop
    vertex       1.400000E-02   -7.000000E-03    0.000000E+00
    vertex       1.575000E-02   -6.750000E-03    0.000000E+00
    vertex       1.400000E-02   -6.750000E-03    0.000000E+00
  endloop
endfacet
facet normal 0.0 0.0 1.0
  outer loop
    vertex       1.400000E-02   -3.500000E-03    0.000000E+00
    vertex       1.575000E-02   -3.500000E-03    0.000000E+00
    vertex       1.575000E-02   -3.250000E-03    0.000000E+00
  endloop
endfacet
facet normal 0.0 0.0 1.0
  outer loop
    vertex       1.400000E-02   -3.500000E-03    0.000000E+00
    vertex       1.575000E-02   -3.250000E-03    0.000000E+00
    vertex       1.400000E-02   -3.250000E-03    0.000000E+00
  endloop
endfacet
facet normal 0.0 0.0 1.0
  outer loop
    vertex       1.400000E-02   -2.000000E-03    0.000000E+00
    vertex       1.575000E-02   -2.000000E-03    0.000000E+00
    vertex       1.575000E-02   -1.750000E-03    0.000000E+00
  endloop
endfacet
facet normal 0.0 0.0 1.0
  outer loop
    vertex       1.400000E-02   -2.000000E-03    0.000000E+00
    vertex       1.575000E-02   -1.750000E-03    0.000000E+00
    vertex       1.400000E-02   -1.750000E-03    0.000000E+00
  endloop
endfacet
facet normal 0.0 0.0 1.0
  outer loop
    vertex       1.400000E-02    1.500000E-03    0.000000E+00
    vertex       1.575000E-02    1.500000E-03    0.000000E+00
    vertex       1.575000E-02    1.750000E-03    0.000000E+00
  endloop
endfacet
facet normal 0.0 0.0 1.0
  outer loop
    vertex       1.400000E-02    1.500000E-03    0.000000E+00
    vertex       1.575000E-02    1.750000E-03    0.000000E+00
    vertex       1.400000E-02    1.750000E-03    0.000000E+00
  endloop
endfacet
facet normal 0.0 0.0 1.0
  outer loop
    vertex       1.400000E-02    3.000000E-03    0.000000E+00
    vertex       1.575000E-02    3.000000E-03    0.000000E+00
    vertex       1.575000E-02    3.250000E-03    0.000000E+00
  endloop
endfacet
facet normal 0.0 0.0 1.0
  outer loop
    vertex       1.400000E-02    3.000000E-03    0.000000E+00
    vertex       1.575000E-02    3.250000E-03    0.000000E+00
    vertex       1.400000E-02    3.250000E-03    0.000000E+00
  endloop
endfacet
facet normal 0.0 0.0 1.0
  outer loop
    vertex       1.400000E-02    6.500000E-03    0.000000E+00
    vertex       1.575000E-02    6.500000E-03    0.000000E+00
    vertex       1.575000E-02    6.750000E-03    0.000000E+00
  endloop
endfacet
facet normal 0.0 0.0 1.0
  outer loop
    vertex       1.400000E-02    6.500000E-03    0.000000E+00
    vertex       1.575000E-02    6.750000E-03    0.000000E+00
    vertex       1.400000E-02    6.750000E-03    0.000000E+00
  endloop
endfacet
facet normal 0.0 0.0 1.0
  outer loop
    vertex       1.475000E-02   -7.250000E-03    0.000000E+00
    vertex       1.500000E-02   -7.250000E-03    0.000000E+00
    vertex       1.500000E-02   -7.000000E-03    0.000000E+00
  endloop
endfacet
facet normal 0.0 0.0 1.0
  outer loop
    vertex       1.475000E-02   -7.250000E-03    0.000000E+00
    vertex       1.500000E-02   -7.000000E-03    0.000000E+00
    vertex       1.475000E-02   -7.000000E-03    0.000000E+00
  endloop
endfacet
facet normal 0.0 0.0 1.0
  outer loop
    vertex       1.475000E-02   -3.250000E-03    0.000000E+00
    vertex       1.500000E-02   -3.250000E-03    0.000000E+00
    vertex       1.500000E-02   -3.000000E-03    0.000000E+00
  endloop
endfacet
facet normal 0.0 0.0 1.0
  outer loop
    vertex       1.475000E-02   -3.250000E-03    0.000000E+00
    vertex       1.500000E-02   -3.000000E-03    0.000000E+00
    vertex       1.475000E-02   -3.000000E-03    0.000000E+00
  endloop
endfacet
facet normal 0.0 0.0 1.0
  outer loop
    vertex       1.475000E-02   -2.250000E-03    0.000000E+00
    vertex       1.500000E-02   -2.250000E-03    0.000000E+00
    vertex       1.500000E-02   -2.000000E-03    0.000000E+00
  endloop
endfacet
facet normal 0.0 0.0 1.0
  outer loop
    vertex       1.475000E-02   -2.250000E-03    0.000000E+00
    vertex       1.500000E-02   -2.000000E-03    0.000000E+00
    vertex       1.475000E-02   -2.000000E-03    0.000000E+00
  endloop
endfacet
facet normal 0.0 0.0 1.0
  outer loop
    vertex       1.475000E-02    1.750000E-03    0.000000E+00
    vertex       1.500000E-02    1.750000E-03    0.000000E+00
    vertex       1.500000E-02    2.000000E-03    0.000000E+00
  endloop
endfacet
facet normal 0.0 0.0 1.0
  outer loop
    vertex       1.475000E-02    1.750000E-03    0.000000E+00
    vertex       1.500000E-02    2.000000E-03    0.000000E+00
    vertex       1.475000E-02    2.000000E-03    0.000000E+00
  endloop
endfacet
facet normal 0.0 0.0 1.0
  outer loop
    vertex       1.475000E-02    2.750000E-03    0.000000E+00
    vertex       1.500000E-02    2.750000E-03    0.000000E+00
    vertex       1.500000E-02    3.000000E-03    0.000000E+00
  endloop
endfacet
facet normal 0.0 0.0 1.0
  outer loop
    vertex       1.475000E-02    2.750000E-03    0.000000E+00
    vertex       1.500000E-02    3.000000E-03    0.000000E+00
    vertex       1.475000E-02    3.000000E-03    0.000000E+00
  endloop
endfacet
facet normal 0.0 0.0 1.0
  outer loop
    vertex       1.475000E-02    6.750000E-03    0.000000E+00
    vertex       1.500000E-02    6.750000E-03    0.000000E+00
    vertex       1.500000E-02    7.000000E-03    0.000000E+00
  endloop
endfacet
facet normal 0.0 0.0 1.0
  outer loop
    vertex       1.475000E-02    6.750000E-03    0.000000E+00
    vertex       1.500000E-02    7.000000E-03    0.000000E+00
    vertex       1.475000E-02    7.000000E-03    0.000000E+00
  endloop
endfacet
endsolid
