G04 Bottom layer of Cree evaluation board*
%FSLAX32Y32*%
%MOMM*%
%ADD10C,7.00X3.00*%
%ADD11C,14.00*%
%ADD22R,3.0X6.0X1.5*%
%ADD23O,3.0X6.0X1.5*%
%ADD24R,8.0X8.0*%
G04 top layer main region 1*
%LPD*%
G01*
G36*
X11700Y01700D02*
X11000Y01700D01*
X10500Y01200D01*
X10500Y00200D01*
X07500Y00200D01*
X07100Y00700D01*
X07100Y02500D01*
X06700Y02900D01*
X04200Y02900D01*
X04200Y02500D01*
X03000Y02500D01*
X02700Y02800D01*
X02700Y04700D01*
X03100Y05100D01*
X04000Y05100D01*
X04200Y05800D01*
X07300Y05800D01*
X07300Y08400D01*
X07600Y08400D01*
X07600Y08300D01*
X07700Y08200D01*
X09900Y08200D01*
X10000Y08300D01*
X10000Y08400D01*
X10300Y08400D01*
X10300Y08300D01*
X10400Y08200D01*
X11700Y08200D01*
X11700Y01700D01*
G37*
G04 top layer main region 2*
G01*
G36*
X03750Y06500D02*
X03550Y06500D01*
X03550Y06800D01*
X03150Y06800D01*
X03150Y06500D01*
X01700Y06500D01*
X01700Y07000D01*
X00900Y07000D01*
X00700Y07200D01*
X00700Y08500D01*
X00900Y08700D01*
X01000Y08700D01*
X01000Y08500D01*
X01300Y08500D01*
X01300Y08200D01*
X02000Y08200D01*
X02000Y08500D01*
X02300Y08500D01*
X02300Y08700D01*
X03800Y08700D01*
X03800Y08400D01*
X04100Y08400D01*
X03600Y08100D01*
X03600Y07000D01*
X03750Y06850D01*
X03750Y06500D01*
G37*
G04 Flash MOSFET and DIODE patches*
D22*
X01150Y08600D03*
X01650Y08600D03*
X02150Y08600D03*
X03950Y08600D03*
X04450Y08600D03*
X04950Y08600D03*
X06950Y08600D03*
X07450Y08600D03*
X07950Y08600D03*
X09650Y08600D03*
X10150Y08600D03*
X10650Y08600D03*
G04 Flash large circular corner patches with holes*
D10*
X00600Y00600D03*
X11400Y00600D03*
X00600Y11900D03*
X11400Y11900D03*
%LPD*%
G04 Flash additional large circular patches with holes*
D10*
X03400Y06600D03*
X03500Y05700D03*
G04 Flash large holes*
%LPC*%
D11*
X01800Y06500D03*
X04500Y06500D03*
X07500Y06500D03*
X10200Y06500D03*
%LPC*%
G04 Flash additional large circular patches with holes*
D10*
X04500Y03000D03*
X04800Y04500D03*
X04800Y05400D03*
M02*
