G04 Top layer of Cree evaluation board*
%FSLAX32Y32*%
%MOMM*%
%ADD10C,7.00X3.00*%
%ADD11C,14.00*%
%ADD22R,3.0X6.0X1.5*%
%ADD23O,3.0X6.0X1.5*%
%ADD24R,8.0X8.0*%
G04 top layer main region 1*
%LPD*%
G01*
G36*
X00200Y04000D02*
X02400Y04000D01*
X02400Y07000D01*
X11200Y07000D01*

X11200Y08600D01*
X11000Y08900D01*
X10800Y08900D01*
X10800Y08400D01*
X10500Y08400D01*
X10500Y08000D01*

X09800Y08000D01*
X09800Y08400D01*
X09500Y08400D01*
X09200Y08000D01*

X07200Y08000D01*
X07100Y08100D01*
X07100Y08400D01*
X06800Y08400D01*
X06800Y08900D01*
X06500Y08900D01*
X06500Y08100D01*
X06400Y08000D01*

X04700Y08000D01*
X04600Y08100D01*
X04600Y08400D01*
X04300Y08400D01*
X04300Y08400D01*
X04300Y08100D01*
X04200Y08000D01*

X01900Y08000D01*
X01800Y08100D01*
X01800Y08400D01*
X01500Y08400D01*
X01500Y08100D01*
X01400Y08000D01*

X00200Y08000D01*
X00200Y04000D01*
G37*
G04 top layer main region 2*
G01*
G36*
X00200Y01700D02*
X01400Y01700D01*
X01400Y00200D01*
X07900Y00200D01*
X07900Y03000D01*
X11700Y03000D01*
X11700Y05500D01*
X07500Y05500D01*
X07500Y04100D01*
X06700Y04100D01*
X06700Y05500D01*
X04200Y05500D01*
X03800Y05900D01*
X03500Y05500D01*
X03200Y05600D01*
X03200Y03800D01*
X02700Y03400D01*
X00200Y03400D01*
X00200Y01700D01*
G37*
G04 Flash MOSFET and DIODE patches*
D22*
X01150Y08600D03*
X01650Y08600D03*
X02150Y08600D03*
X03950Y08600D03*
X04450Y08600D03*
X04950Y08600D03*
X06950Y08600D03*
X07450Y08600D03*
X07950Y08600D03*
X09650Y08600D03*
X10150Y08600D03*
X10650Y08600D03*
G04 Flash large circular corner patches with holes*
D10*
X00600Y00600D03*
X11400Y00600D03*
X00600Y11900D03*
X11400Y11900D03*
G04 Flash large holes*
%LPC*%
D11*
X01800Y06500D03*
X04500Y06500D03*
X07500Y06500D03*
X10200Y06500D03*
X03400Y06600D03*
%LPD*%
G04 Flash additional large circular patches with holes*
D10*
X03400Y06600D03*
X03500Y05700D03*
G04 Flash square holes for large capacitors*
%LPC*%
D24*
X07300Y01100D03*
X07300Y03000D03*
%LPD*%
M02*
