solid ascii
facet normal 0.0 0.0 1.0
  outer loop
    vertex      -5.225000E-02   -5.250000E-03    0.000000E+00
    vertex       5.200000E-02   -5.250000E-03    0.000000E+00
    vertex       5.200000E-02   -5.000000E-03    0.000000E+00
  endloop
endfacet
facet normal 0.0 0.0 1.0
  outer loop
    vertex      -5.225000E-02   -5.250000E-03    0.000000E+00
    vertex       5.200000E-02   -5.000000E-03    0.000000E+00
    vertex      -5.225000E-02   -5.000000E-03    0.000000E+00
  endloop
endfacet
facet normal 0.0 0.0 1.0
  outer loop
    vertex      -5.225000E-02   -2.500001E-04    0.000000E+00
    vertex      -4.300000E-02   -2.500001E-04    0.000000E+00
    vertex      -4.300000E-02   -8.195639E-11    0.000000E+00
  endloop
endfacet
facet normal 0.0 0.0 1.0
  outer loop
    vertex      -5.225000E-02   -2.500001E-04    0.000000E+00
    vertex      -4.300000E-02   -8.195639E-11    0.000000E+00
    vertex      -5.225000E-02   -8.195639E-11    0.000000E+00
  endloop
endfacet
facet normal 0.0 0.0 1.0
  outer loop
    vertex      -5.225000E-02    4.750000E-03    0.000000E+00
    vertex       5.200000E-02    4.750000E-03    0.000000E+00
    vertex       5.200000E-02    5.000000E-03    0.000000E+00
  endloop
endfacet
facet normal 0.0 0.0 1.0
  outer loop
    vertex      -5.225000E-02    4.750000E-03    0.000000E+00
    vertex       5.200000E-02    5.000000E-03    0.000000E+00
    vertex      -5.225000E-02    5.000000E-03    0.000000E+00
  endloop
endfacet
facet normal 0.0 0.0 1.0
  outer loop
    vertex      -5.200000E-02   -6.000000E-03    0.000000E+00
    vertex       5.175000E-02   -6.000000E-03    0.000000E+00
    vertex       5.175000E-02   -5.250000E-03    0.000000E+00
  endloop
endfacet
facet normal 0.0 0.0 1.0
  outer loop
    vertex      -5.200000E-02   -6.000000E-03    0.000000E+00
    vertex       5.175000E-02   -5.250000E-03    0.000000E+00
    vertex      -5.200000E-02   -5.250000E-03    0.000000E+00
  endloop
endfacet
facet normal 0.0 0.0 1.0
  outer loop
    vertex      -5.200000E-02   -5.000000E-03    0.000000E+00
    vertex       5.175000E-02   -5.000000E-03    0.000000E+00
    vertex       5.175000E-02   -4.250000E-03    0.000000E+00
  endloop
endfacet
facet normal 0.0 0.0 1.0
  outer loop
    vertex      -5.200000E-02   -5.000000E-03    0.000000E+00
    vertex       5.175000E-02   -4.250000E-03    0.000000E+00
    vertex      -5.200000E-02   -4.250000E-03    0.000000E+00
  endloop
endfacet
facet normal 0.0 0.0 1.0
  outer loop
    vertex      -5.200000E-02   -1.000000E-03    0.000000E+00
    vertex      -4.325000E-02   -1.000000E-03    0.000000E+00
    vertex      -4.325000E-02   -2.500001E-04    0.000000E+00
  endloop
endfacet
facet normal 0.0 0.0 1.0
  outer loop
    vertex      -5.200000E-02   -1.000000E-03    0.000000E+00
    vertex      -4.325000E-02   -2.500001E-04    0.000000E+00
    vertex      -5.200000E-02   -2.500001E-04    0.000000E+00
  endloop
endfacet
facet normal 0.0 0.0 1.0
  outer loop
    vertex      -5.200000E-02   -8.195639E-11    0.000000E+00
    vertex      -4.325000E-02   -8.195639E-11    0.000000E+00
    vertex      -4.325000E-02    7.499999E-04    0.000000E+00
  endloop
endfacet
facet normal 0.0 0.0 1.0
  outer loop
    vertex      -5.200000E-02   -8.195639E-11    0.000000E+00
    vertex      -4.325000E-02    7.499999E-04    0.000000E+00
    vertex      -5.200000E-02    7.499999E-04    0.000000E+00
  endloop
endfacet
facet normal 0.0 0.0 1.0
  outer loop
    vertex      -5.200000E-02    4.000000E-03    0.000000E+00
    vertex       5.175000E-02    4.000000E-03    0.000000E+00
    vertex       5.175000E-02    4.750000E-03    0.000000E+00
  endloop
endfacet
facet normal 0.0 0.0 1.0
  outer loop
    vertex      -5.200000E-02    4.000000E-03    0.000000E+00
    vertex       5.175000E-02    4.750000E-03    0.000000E+00
    vertex      -5.200000E-02    4.750000E-03    0.000000E+00
  endloop
endfacet
facet normal 0.0 0.0 1.0
  outer loop
    vertex      -5.200000E-02    5.000000E-03    0.000000E+00
    vertex       5.175000E-02    5.000000E-03    0.000000E+00
    vertex       5.175000E-02    5.750000E-03    0.000000E+00
  endloop
endfacet
facet normal 0.0 0.0 1.0
  outer loop
    vertex      -5.200000E-02    5.000000E-03    0.000000E+00
    vertex       5.175000E-02    5.750000E-03    0.000000E+00
    vertex      -5.200000E-02    5.750000E-03    0.000000E+00
  endloop
endfacet
facet normal 0.0 0.0 1.0
  outer loop
    vertex      -5.175000E-02   -6.500000E-03    0.000000E+00
    vertex      -4.850000E-02   -6.500000E-03    0.000000E+00
    vertex      -4.850000E-02   -6.000000E-03    0.000000E+00
  endloop
endfacet
facet normal 0.0 0.0 1.0
  outer loop
    vertex      -5.175000E-02   -6.500000E-03    0.000000E+00
    vertex      -4.850000E-02   -6.000000E-03    0.000000E+00
    vertex      -5.175000E-02   -6.000000E-03    0.000000E+00
  endloop
endfacet
facet normal 0.0 0.0 1.0
  outer loop
    vertex      -5.175000E-02   -4.250000E-03    0.000000E+00
    vertex      -4.850000E-02   -4.250000E-03    0.000000E+00
    vertex      -4.850000E-02   -3.750000E-03    0.000000E+00
  endloop
endfacet
facet normal 0.0 0.0 1.0
  outer loop
    vertex      -5.175000E-02   -4.250000E-03    0.000000E+00
    vertex      -4.850000E-02   -3.750000E-03    0.000000E+00
    vertex      -5.175000E-02   -3.750000E-03    0.000000E+00
  endloop
endfacet
facet normal 0.0 0.0 1.0
  outer loop
    vertex      -5.175000E-02   -1.500000E-03    0.000000E+00
    vertex      -4.850000E-02   -1.500000E-03    0.000000E+00
    vertex      -4.850000E-02   -1.000000E-03    0.000000E+00
  endloop
endfacet
facet normal 0.0 0.0 1.0
  outer loop
    vertex      -5.175000E-02   -1.500000E-03    0.000000E+00
    vertex      -4.850000E-02   -1.000000E-03    0.000000E+00
    vertex      -5.175000E-02   -1.000000E-03    0.000000E+00
  endloop
endfacet
facet normal 0.0 0.0 1.0
  outer loop
    vertex      -5.175000E-02    7.499999E-04    0.000000E+00
    vertex      -4.850000E-02    7.499999E-04    0.000000E+00
    vertex      -4.850000E-02    1.250000E-03    0.000000E+00
  endloop
endfacet
facet normal 0.0 0.0 1.0
  outer loop
    vertex      -5.175000E-02    7.499999E-04    0.000000E+00
    vertex      -4.850000E-02    1.250000E-03    0.000000E+00
    vertex      -5.175000E-02    1.250000E-03    0.000000E+00
  endloop
endfacet
facet normal 0.0 0.0 1.0
  outer loop
    vertex      -5.175000E-02    3.500000E-03    0.000000E+00
    vertex      -4.850000E-02    3.500000E-03    0.000000E+00
    vertex      -4.850000E-02    4.000000E-03    0.000000E+00
  endloop
endfacet
facet normal 0.0 0.0 1.0
  outer loop
    vertex      -5.175000E-02    3.500000E-03    0.000000E+00
    vertex      -4.850000E-02    4.000000E-03    0.000000E+00
    vertex      -5.175000E-02    4.000000E-03    0.000000E+00
  endloop
endfacet
facet normal 0.0 0.0 1.0
  outer loop
    vertex      -5.175000E-02    5.750000E-03    0.000000E+00
    vertex      -4.850000E-02    5.750000E-03    0.000000E+00
    vertex      -4.850000E-02    6.250000E-03    0.000000E+00
  endloop
endfacet
facet normal 0.0 0.0 1.0
  outer loop
    vertex      -5.175000E-02    5.750000E-03    0.000000E+00
    vertex      -4.850000E-02    6.250000E-03    0.000000E+00
    vertex      -5.175000E-02    6.250000E-03    0.000000E+00
  endloop
endfacet
facet normal 0.0 0.0 1.0
  outer loop
    vertex      -5.150000E-02   -6.750000E-03    0.000000E+00
    vertex      -4.875000E-02   -6.750000E-03    0.000000E+00
    vertex      -4.875000E-02   -6.500000E-03    0.000000E+00
  endloop
endfacet
facet normal 0.0 0.0 1.0
  outer loop
    vertex      -5.150000E-02   -6.750000E-03    0.000000E+00
    vertex      -4.875000E-02   -6.500000E-03    0.000000E+00
    vertex      -5.150000E-02   -6.500000E-03    0.000000E+00
  endloop
endfacet
facet normal 0.0 0.0 1.0
  outer loop
    vertex      -5.150000E-02   -3.750000E-03    0.000000E+00
    vertex      -4.875000E-02   -3.750000E-03    0.000000E+00
    vertex      -4.875000E-02   -3.500000E-03    0.000000E+00
  endloop
endfacet
facet normal 0.0 0.0 1.0
  outer loop
    vertex      -5.150000E-02   -3.750000E-03    0.000000E+00
    vertex      -4.875000E-02   -3.500000E-03    0.000000E+00
    vertex      -5.150000E-02   -3.500000E-03    0.000000E+00
  endloop
endfacet
facet normal 0.0 0.0 1.0
  outer loop
    vertex      -5.150000E-02   -1.750000E-03    0.000000E+00
    vertex      -4.875000E-02   -1.750000E-03    0.000000E+00
    vertex      -4.875000E-02   -1.500000E-03    0.000000E+00
  endloop
endfacet
facet normal 0.0 0.0 1.0
  outer loop
    vertex      -5.150000E-02   -1.750000E-03    0.000000E+00
    vertex      -4.875000E-02   -1.500000E-03    0.000000E+00
    vertex      -5.150000E-02   -1.500000E-03    0.000000E+00
  endloop
endfacet
facet normal 0.0 0.0 1.0
  outer loop
    vertex      -5.150000E-02    1.250000E-03    0.000000E+00
    vertex      -4.875000E-02    1.250000E-03    0.000000E+00
    vertex      -4.875000E-02    1.500000E-03    0.000000E+00
  endloop
endfacet
facet normal 0.0 0.0 1.0
  outer loop
    vertex      -5.150000E-02    1.250000E-03    0.000000E+00
    vertex      -4.875000E-02    1.500000E-03    0.000000E+00
    vertex      -5.150000E-02    1.500000E-03    0.000000E+00
  endloop
endfacet
facet normal 0.0 0.0 1.0
  outer loop
    vertex      -5.150000E-02    3.250000E-03    0.000000E+00
    vertex      -4.875000E-02    3.250000E-03    0.000000E+00
    vertex      -4.875000E-02    3.500000E-03    0.000000E+00
  endloop
endfacet
facet normal 0.0 0.0 1.0
  outer loop
    vertex      -5.150000E-02    3.250000E-03    0.000000E+00
    vertex      -4.875000E-02    3.500000E-03    0.000000E+00
    vertex      -5.150000E-02    3.500000E-03    0.000000E+00
  endloop
endfacet
facet normal 0.0 0.0 1.0
  outer loop
    vertex      -5.150000E-02    6.250000E-03    0.000000E+00
    vertex      -4.875000E-02    6.250000E-03    0.000000E+00
    vertex      -4.875000E-02    6.500000E-03    0.000000E+00
  endloop
endfacet
facet normal 0.0 0.0 1.0
  outer loop
    vertex      -5.150000E-02    6.250000E-03    0.000000E+00
    vertex      -4.875000E-02    6.500000E-03    0.000000E+00
    vertex      -5.150000E-02    6.500000E-03    0.000000E+00
  endloop
endfacet
facet normal 0.0 0.0 1.0
  outer loop
    vertex      -5.100000E-02   -7.000000E-03    0.000000E+00
    vertex      -4.925000E-02   -7.000000E-03    0.000000E+00
    vertex      -4.925000E-02   -6.750000E-03    0.000000E+00
  endloop
endfacet
facet normal 0.0 0.0 1.0
  outer loop
    vertex      -5.100000E-02   -7.000000E-03    0.000000E+00
    vertex      -4.925000E-02   -6.750000E-03    0.000000E+00
    vertex      -5.100000E-02   -6.750000E-03    0.000000E+00
  endloop
endfacet
facet normal 0.0 0.0 1.0
  outer loop
    vertex      -5.100000E-02   -3.500000E-03    0.000000E+00
    vertex      -4.925000E-02   -3.500000E-03    0.000000E+00
    vertex      -4.925000E-02   -3.250000E-03    0.000000E+00
  endloop
endfacet
facet normal 0.0 0.0 1.0
  outer loop
    vertex      -5.100000E-02   -3.500000E-03    0.000000E+00
    vertex      -4.925000E-02   -3.250000E-03    0.000000E+00
    vertex      -5.100000E-02   -3.250000E-03    0.000000E+00
  endloop
endfacet
facet normal 0.0 0.0 1.0
  outer loop
    vertex      -5.100000E-02   -2.000000E-03    0.000000E+00
    vertex      -4.925000E-02   -2.000000E-03    0.000000E+00
    vertex      -4.925000E-02   -1.750000E-03    0.000000E+00
  endloop
endfacet
facet normal 0.0 0.0 1.0
  outer loop
    vertex      -5.100000E-02   -2.000000E-03    0.000000E+00
    vertex      -4.925000E-02   -1.750000E-03    0.000000E+00
    vertex      -5.100000E-02   -1.750000E-03    0.000000E+00
  endloop
endfacet
facet normal 0.0 0.0 1.0
  outer loop
    vertex      -5.100000E-02    1.500000E-03    0.000000E+00
    vertex      -4.925000E-02    1.500000E-03    0.000000E+00
    vertex      -4.925000E-02    1.750000E-03    0.000000E+00
  endloop
endfacet
facet normal 0.0 0.0 1.0
  outer loop
    vertex      -5.100000E-02    1.500000E-03    0.000000E+00
    vertex      -4.925000E-02    1.750000E-03    0.000000E+00
    vertex      -5.100000E-02    1.750000E-03    0.000000E+00
  endloop
endfacet
facet normal 0.0 0.0 1.0
  outer loop
    vertex      -5.100000E-02    3.000000E-03    0.000000E+00
    vertex      -4.925000E-02    3.000000E-03    0.000000E+00
    vertex      -4.925000E-02    3.250000E-03    0.000000E+00
  endloop
endfacet
facet normal 0.0 0.0 1.0
  outer loop
    vertex      -5.100000E-02    3.000000E-03    0.000000E+00
    vertex      -4.925000E-02    3.250000E-03    0.000000E+00
    vertex      -5.100000E-02    3.250000E-03    0.000000E+00
  endloop
endfacet
facet normal 0.0 0.0 1.0
  outer loop
    vertex      -5.100000E-02    6.500000E-03    0.000000E+00
    vertex      -4.925000E-02    6.500000E-03    0.000000E+00
    vertex      -4.925000E-02    6.750000E-03    0.000000E+00
  endloop
endfacet
facet normal 0.0 0.0 1.0
  outer loop
    vertex      -5.100000E-02    6.500000E-03    0.000000E+00
    vertex      -4.925000E-02    6.750000E-03    0.000000E+00
    vertex      -5.100000E-02    6.750000E-03    0.000000E+00
  endloop
endfacet
facet normal 0.0 0.0 1.0
  outer loop
    vertex      -5.025000E-02   -7.250000E-03    0.000000E+00
    vertex      -5.000000E-02   -7.250000E-03    0.000000E+00
    vertex      -5.000000E-02   -7.000000E-03    0.000000E+00
  endloop
endfacet
facet normal 0.0 0.0 1.0
  outer loop
    vertex      -5.025000E-02   -7.250000E-03    0.000000E+00
    vertex      -5.000000E-02   -7.000000E-03    0.000000E+00
    vertex      -5.025000E-02   -7.000000E-03    0.000000E+00
  endloop
endfacet
facet normal 0.0 0.0 1.0
  outer loop
    vertex      -5.025000E-02   -3.250000E-03    0.000000E+00
    vertex      -5.000000E-02   -3.250000E-03    0.000000E+00
    vertex      -5.000000E-02   -3.000000E-03    0.000000E+00
  endloop
endfacet
facet normal 0.0 0.0 1.0
  outer loop
    vertex      -5.025000E-02   -3.250000E-03    0.000000E+00
    vertex      -5.000000E-02   -3.000000E-03    0.000000E+00
    vertex      -5.025000E-02   -3.000000E-03    0.000000E+00
  endloop
endfacet
facet normal 0.0 0.0 1.0
  outer loop
    vertex      -5.025000E-02   -2.250000E-03    0.000000E+00
    vertex      -5.000000E-02   -2.250000E-03    0.000000E+00
    vertex      -5.000000E-02   -2.000000E-03    0.000000E+00
  endloop
endfacet
facet normal 0.0 0.0 1.0
  outer loop
    vertex      -5.025000E-02   -2.250000E-03    0.000000E+00
    vertex      -5.000000E-02   -2.000000E-03    0.000000E+00
    vertex      -5.025000E-02   -2.000000E-03    0.000000E+00
  endloop
endfacet
facet normal 0.0 0.0 1.0
  outer loop
    vertex      -5.025000E-02    1.750000E-03    0.000000E+00
    vertex      -5.000000E-02    1.750000E-03    0.000000E+00
    vertex      -5.000000E-02    2.000000E-03    0.000000E+00
  endloop
endfacet
facet normal 0.0 0.0 1.0
  outer loop
    vertex      -5.025000E-02    1.750000E-03    0.000000E+00
    vertex      -5.000000E-02    2.000000E-03    0.000000E+00
    vertex      -5.025000E-02    2.000000E-03    0.000000E+00
  endloop
endfacet
facet normal 0.0 0.0 1.0
  outer loop
    vertex      -5.025000E-02    2.750000E-03    0.000000E+00
    vertex      -5.000000E-02    2.750000E-03    0.000000E+00
    vertex      -5.000000E-02    3.000000E-03    0.000000E+00
  endloop
endfacet
facet normal 0.0 0.0 1.0
  outer loop
    vertex      -5.025000E-02    2.750000E-03    0.000000E+00
    vertex      -5.000000E-02    3.000000E-03    0.000000E+00
    vertex      -5.025000E-02    3.000000E-03    0.000000E+00
  endloop
endfacet
facet normal 0.0 0.0 1.0
  outer loop
    vertex      -5.025000E-02    6.750000E-03    0.000000E+00
    vertex      -5.000000E-02    6.750000E-03    0.000000E+00
    vertex      -5.000000E-02    7.000000E-03    0.000000E+00
  endloop
endfacet
facet normal 0.0 0.0 1.0
  outer loop
    vertex      -5.025000E-02    6.750000E-03    0.000000E+00
    vertex      -5.000000E-02    7.000000E-03    0.000000E+00
    vertex      -5.025000E-02    7.000000E-03    0.000000E+00
  endloop
endfacet
facet normal 0.0 0.0 1.0
  outer loop
    vertex      -4.850000E-02   -6.250000E-03    0.000000E+00
    vertex       5.150000E-02   -6.250000E-03    0.000000E+00
    vertex       5.150000E-02   -6.000000E-03    0.000000E+00
  endloop
endfacet
facet normal 0.0 0.0 1.0
  outer loop
    vertex      -4.850000E-02   -6.250000E-03    0.000000E+00
    vertex       5.150000E-02   -6.000000E-03    0.000000E+00
    vertex      -4.850000E-02   -6.000000E-03    0.000000E+00
  endloop
endfacet
facet normal 0.0 0.0 1.0
  outer loop
    vertex      -4.850000E-02   -4.250000E-03    0.000000E+00
    vertex       5.150000E-02   -4.250000E-03    0.000000E+00
    vertex       5.150000E-02   -4.000000E-03    0.000000E+00
  endloop
endfacet
facet normal 0.0 0.0 1.0
  outer loop
    vertex      -4.850000E-02   -4.250000E-03    0.000000E+00
    vertex       5.150000E-02   -4.000000E-03    0.000000E+00
    vertex      -4.850000E-02   -4.000000E-03    0.000000E+00
  endloop
endfacet
facet normal 0.0 0.0 1.0
  outer loop
    vertex      -4.850000E-02   -1.250000E-03    0.000000E+00
    vertex      -4.350000E-02   -1.250000E-03    0.000000E+00
    vertex      -4.350000E-02   -1.000000E-03    0.000000E+00
  endloop
endfacet
facet normal 0.0 0.0 1.0
  outer loop
    vertex      -4.850000E-02   -1.250000E-03    0.000000E+00
    vertex      -4.350000E-02   -1.000000E-03    0.000000E+00
    vertex      -4.850000E-02   -1.000000E-03    0.000000E+00
  endloop
endfacet
facet normal 0.0 0.0 1.0
  outer loop
    vertex      -4.850000E-02    7.499999E-04    0.000000E+00
    vertex      -4.350000E-02    7.499999E-04    0.000000E+00
    vertex      -4.350000E-02    9.999999E-04    0.000000E+00
  endloop
endfacet
facet normal 0.0 0.0 1.0
  outer loop
    vertex      -4.850000E-02    7.499999E-04    0.000000E+00
    vertex      -4.350000E-02    9.999999E-04    0.000000E+00
    vertex      -4.850000E-02    9.999999E-04    0.000000E+00
  endloop
endfacet
facet normal 0.0 0.0 1.0
  outer loop
    vertex      -4.850000E-02    3.750000E-03    0.000000E+00
    vertex       5.150000E-02    3.750000E-03    0.000000E+00
    vertex       5.150000E-02    4.000000E-03    0.000000E+00
  endloop
endfacet
facet normal 0.0 0.0 1.0
  outer loop
    vertex      -4.850000E-02    3.750000E-03    0.000000E+00
    vertex       5.150000E-02    4.000000E-03    0.000000E+00
    vertex      -4.850000E-02    4.000000E-03    0.000000E+00
  endloop
endfacet
facet normal 0.0 0.0 1.0
  outer loop
    vertex      -4.850000E-02    5.750000E-03    0.000000E+00
    vertex       5.150000E-02    5.750000E-03    0.000000E+00
    vertex       5.150000E-02    6.000000E-03    0.000000E+00
  endloop
endfacet
facet normal 0.0 0.0 1.0
  outer loop
    vertex      -4.850000E-02    5.750000E-03    0.000000E+00
    vertex       5.150000E-02    6.000000E-03    0.000000E+00
    vertex      -4.850000E-02    6.000000E-03    0.000000E+00
  endloop
endfacet
facet normal 0.0 0.0 1.0
  outer loop
    vertex      -4.675000E-02   -1.500000E-03    0.000000E+00
    vertex      -4.350000E-02   -1.500000E-03    0.000000E+00
    vertex      -4.350000E-02   -1.250000E-03    0.000000E+00
  endloop
endfacet
facet normal 0.0 0.0 1.0
  outer loop
    vertex      -4.675000E-02   -1.500000E-03    0.000000E+00
    vertex      -4.350000E-02   -1.250000E-03    0.000000E+00
    vertex      -4.675000E-02   -1.250000E-03    0.000000E+00
  endloop
endfacet
facet normal 0.0 0.0 1.0
  outer loop
    vertex      -4.675000E-02    9.999999E-04    0.000000E+00
    vertex      -4.350000E-02    9.999999E-04    0.000000E+00
    vertex      -4.350000E-02    1.250000E-03    0.000000E+00
  endloop
endfacet
facet normal 0.0 0.0 1.0
  outer loop
    vertex      -4.675000E-02    9.999999E-04    0.000000E+00
    vertex      -4.350000E-02    1.250000E-03    0.000000E+00
    vertex      -4.675000E-02    1.250000E-03    0.000000E+00
  endloop
endfacet
facet normal 0.0 0.0 1.0
  outer loop
    vertex      -4.650000E-02   -1.750000E-03    0.000000E+00
    vertex      -4.375000E-02   -1.750000E-03    0.000000E+00
    vertex      -4.375000E-02   -1.500000E-03    0.000000E+00
  endloop
endfacet
facet normal 0.0 0.0 1.0
  outer loop
    vertex      -4.650000E-02   -1.750000E-03    0.000000E+00
    vertex      -4.375000E-02   -1.500000E-03    0.000000E+00
    vertex      -4.650000E-02   -1.500000E-03    0.000000E+00
  endloop
endfacet
facet normal 0.0 0.0 1.0
  outer loop
    vertex      -4.650000E-02    1.250000E-03    0.000000E+00
    vertex      -4.375000E-02    1.250000E-03    0.000000E+00
    vertex      -4.375000E-02    1.500000E-03    0.000000E+00
  endloop
endfacet
facet normal 0.0 0.0 1.0
  outer loop
    vertex      -4.650000E-02    1.250000E-03    0.000000E+00
    vertex      -4.375000E-02    1.500000E-03    0.000000E+00
    vertex      -4.650000E-02    1.500000E-03    0.000000E+00
  endloop
endfacet
facet normal 0.0 0.0 1.0
  outer loop
    vertex      -4.600000E-02   -2.000000E-03    0.000000E+00
    vertex      -4.425000E-02   -2.000000E-03    0.000000E+00
    vertex      -4.425000E-02   -1.750000E-03    0.000000E+00
  endloop
endfacet
facet normal 0.0 0.0 1.0
  outer loop
    vertex      -4.600000E-02   -2.000000E-03    0.000000E+00
    vertex      -4.425000E-02   -1.750000E-03    0.000000E+00
    vertex      -4.600000E-02   -1.750000E-03    0.000000E+00
  endloop
endfacet
facet normal 0.0 0.0 1.0
  outer loop
    vertex      -4.600000E-02    1.500000E-03    0.000000E+00
    vertex      -4.425000E-02    1.500000E-03    0.000000E+00
    vertex      -4.425000E-02    1.750000E-03    0.000000E+00
  endloop
endfacet
facet normal 0.0 0.0 1.0
  outer loop
    vertex      -4.600000E-02    1.500000E-03    0.000000E+00
    vertex      -4.425000E-02    1.750000E-03    0.000000E+00
    vertex      -4.600000E-02    1.750000E-03    0.000000E+00
  endloop
endfacet
facet normal 0.0 0.0 1.0
  outer loop
    vertex      -4.525000E-02   -2.250000E-03    0.000000E+00
    vertex      -4.500000E-02   -2.250000E-03    0.000000E+00
    vertex      -4.500000E-02   -2.000000E-03    0.000000E+00
  endloop
endfacet
facet normal 0.0 0.0 1.0
  outer loop
    vertex      -4.525000E-02   -2.250000E-03    0.000000E+00
    vertex      -4.500000E-02   -2.000000E-03    0.000000E+00
    vertex      -4.525000E-02   -2.000000E-03    0.000000E+00
  endloop
endfacet
facet normal 0.0 0.0 1.0
  outer loop
    vertex      -4.525000E-02    1.750000E-03    0.000000E+00
    vertex      -4.500000E-02    1.750000E-03    0.000000E+00
    vertex      -4.500000E-02    2.000000E-03    0.000000E+00
  endloop
endfacet
facet normal 0.0 0.0 1.0
  outer loop
    vertex      -4.525000E-02    1.750000E-03    0.000000E+00
    vertex      -4.500000E-02    2.000000E-03    0.000000E+00
    vertex      -4.525000E-02    2.000000E-03    0.000000E+00
  endloop
endfacet
facet normal 0.0 0.0 1.0
  outer loop
    vertex       4.275000E-02   -2.500001E-04    0.000000E+00
    vertex       5.200000E-02   -2.500001E-04    0.000000E+00
    vertex       5.200000E-02   -8.195639E-11    0.000000E+00
  endloop
endfacet
facet normal 0.0 0.0 1.0
  outer loop
    vertex       4.275000E-02   -2.500001E-04    0.000000E+00
    vertex       5.200000E-02   -8.195639E-11    0.000000E+00
    vertex       4.275000E-02   -8.195639E-11    0.000000E+00
  endloop
endfacet
facet normal 0.0 0.0 1.0
  outer loop
    vertex       4.300000E-02   -1.000000E-03    0.000000E+00
    vertex       5.175000E-02   -1.000000E-03    0.000000E+00
    vertex       5.175000E-02   -2.500001E-04    0.000000E+00
  endloop
endfacet
facet normal 0.0 0.0 1.0
  outer loop
    vertex       4.300000E-02   -1.000000E-03    0.000000E+00
    vertex       5.175000E-02   -2.500001E-04    0.000000E+00
    vertex       4.300000E-02   -2.500001E-04    0.000000E+00
  endloop
endfacet
facet normal 0.0 0.0 1.0
  outer loop
    vertex       4.300000E-02   -8.195639E-11    0.000000E+00
    vertex       5.175000E-02   -8.195639E-11    0.000000E+00
    vertex       5.175000E-02    7.499999E-04    0.000000E+00
  endloop
endfacet
facet normal 0.0 0.0 1.0
  outer loop
    vertex       4.300000E-02   -8.195639E-11    0.000000E+00
    vertex       5.175000E-02    7.499999E-04    0.000000E+00
    vertex       4.300000E-02    7.499999E-04    0.000000E+00
  endloop
endfacet
facet normal 0.0 0.0 1.0
  outer loop
    vertex       4.325000E-02   -1.500000E-03    0.000000E+00
    vertex       4.650000E-02   -1.500000E-03    0.000000E+00
    vertex       4.650000E-02   -1.000000E-03    0.000000E+00
  endloop
endfacet
facet normal 0.0 0.0 1.0
  outer loop
    vertex       4.325000E-02   -1.500000E-03    0.000000E+00
    vertex       4.650000E-02   -1.000000E-03    0.000000E+00
    vertex       4.325000E-02   -1.000000E-03    0.000000E+00
  endloop
endfacet
facet normal 0.0 0.0 1.0
  outer loop
    vertex       4.325000E-02    7.499999E-04    0.000000E+00
    vertex       4.650000E-02    7.499999E-04    0.000000E+00
    vertex       4.650000E-02    1.250000E-03    0.000000E+00
  endloop
endfacet
facet normal 0.0 0.0 1.0
  outer loop
    vertex       4.325000E-02    7.499999E-04    0.000000E+00
    vertex       4.650000E-02    1.250000E-03    0.000000E+00
    vertex       4.325000E-02    1.250000E-03    0.000000E+00
  endloop
endfacet
facet normal 0.0 0.0 1.0
  outer loop
    vertex       4.350000E-02   -1.750000E-03    0.000000E+00
    vertex       4.625000E-02   -1.750000E-03    0.000000E+00
    vertex       4.625000E-02   -1.500000E-03    0.000000E+00
  endloop
endfacet
facet normal 0.0 0.0 1.0
  outer loop
    vertex       4.350000E-02   -1.750000E-03    0.000000E+00
    vertex       4.625000E-02   -1.500000E-03    0.000000E+00
    vertex       4.350000E-02   -1.500000E-03    0.000000E+00
  endloop
endfacet
facet normal 0.0 0.0 1.0
  outer loop
    vertex       4.350000E-02    1.250000E-03    0.000000E+00
    vertex       4.625000E-02    1.250000E-03    0.000000E+00
    vertex       4.625000E-02    1.500000E-03    0.000000E+00
  endloop
endfacet
facet normal 0.0 0.0 1.0
  outer loop
    vertex       4.350000E-02    1.250000E-03    0.000000E+00
    vertex       4.625000E-02    1.500000E-03    0.000000E+00
    vertex       4.350000E-02    1.500000E-03    0.000000E+00
  endloop
endfacet
facet normal 0.0 0.0 1.0
  outer loop
    vertex       4.400000E-02   -2.000000E-03    0.000000E+00
    vertex       4.575000E-02   -2.000000E-03    0.000000E+00
    vertex       4.575000E-02   -1.750000E-03    0.000000E+00
  endloop
endfacet
facet normal 0.0 0.0 1.0
  outer loop
    vertex       4.400000E-02   -2.000000E-03    0.000000E+00
    vertex       4.575000E-02   -1.750000E-03    0.000000E+00
    vertex       4.400000E-02   -1.750000E-03    0.000000E+00
  endloop
endfacet
facet normal 0.0 0.0 1.0
  outer loop
    vertex       4.400000E-02    1.500000E-03    0.000000E+00
    vertex       4.575000E-02    1.500000E-03    0.000000E+00
    vertex       4.575000E-02    1.750000E-03    0.000000E+00
  endloop
endfacet
facet normal 0.0 0.0 1.0
  outer loop
    vertex       4.400000E-02    1.500000E-03    0.000000E+00
    vertex       4.575000E-02    1.750000E-03    0.000000E+00
    vertex       4.400000E-02    1.750000E-03    0.000000E+00
  endloop
endfacet
facet normal 0.0 0.0 1.0
  outer loop
    vertex       4.475000E-02   -2.250000E-03    0.000000E+00
    vertex       4.500000E-02   -2.250000E-03    0.000000E+00
    vertex       4.500000E-02   -2.000000E-03    0.000000E+00
  endloop
endfacet
facet normal 0.0 0.0 1.0
  outer loop
    vertex       4.475000E-02   -2.250000E-03    0.000000E+00
    vertex       4.500000E-02   -2.000000E-03    0.000000E+00
    vertex       4.475000E-02   -2.000000E-03    0.000000E+00
  endloop
endfacet
facet normal 0.0 0.0 1.0
  outer loop
    vertex       4.475000E-02    1.750000E-03    0.000000E+00
    vertex       4.500000E-02    1.750000E-03    0.000000E+00
    vertex       4.500000E-02    2.000000E-03    0.000000E+00
  endloop
endfacet
facet normal 0.0 0.0 1.0
  outer loop
    vertex       4.475000E-02    1.750000E-03    0.000000E+00
    vertex       4.500000E-02    2.000000E-03    0.000000E+00
    vertex       4.475000E-02    2.000000E-03    0.000000E+00
  endloop
endfacet
facet normal 0.0 0.0 1.0
  outer loop
    vertex       4.650000E-02   -1.250000E-03    0.000000E+00
    vertex       5.150000E-02   -1.250000E-03    0.000000E+00
    vertex       5.150000E-02   -1.000000E-03    0.000000E+00
  endloop
endfacet
facet normal 0.0 0.0 1.0
  outer loop
    vertex       4.650000E-02   -1.250000E-03    0.000000E+00
    vertex       5.150000E-02   -1.000000E-03    0.000000E+00
    vertex       4.650000E-02   -1.000000E-03    0.000000E+00
  endloop
endfacet
facet normal 0.0 0.0 1.0
  outer loop
    vertex       4.650000E-02    7.499999E-04    0.000000E+00
    vertex       5.150000E-02    7.499999E-04    0.000000E+00
    vertex       5.150000E-02    9.999999E-04    0.000000E+00
  endloop
endfacet
facet normal 0.0 0.0 1.0
  outer loop
    vertex       4.650000E-02    7.499999E-04    0.000000E+00
    vertex       5.150000E-02    9.999999E-04    0.000000E+00
    vertex       4.650000E-02    9.999999E-04    0.000000E+00
  endloop
endfacet
facet normal 0.0 0.0 1.0
  outer loop
    vertex       4.825000E-02   -6.500000E-03    0.000000E+00
    vertex       5.150000E-02   -6.500000E-03    0.000000E+00
    vertex       5.150000E-02   -6.250000E-03    0.000000E+00
  endloop
endfacet
facet normal 0.0 0.0 1.0
  outer loop
    vertex       4.825000E-02   -6.500000E-03    0.000000E+00
    vertex       5.150000E-02   -6.250000E-03    0.000000E+00
    vertex       4.825000E-02   -6.250000E-03    0.000000E+00
  endloop
endfacet
facet normal 0.0 0.0 1.0
  outer loop
    vertex       4.825000E-02   -4.000000E-03    0.000000E+00
    vertex       5.150000E-02   -4.000000E-03    0.000000E+00
    vertex       5.150000E-02   -3.750000E-03    0.000000E+00
  endloop
endfacet
facet normal 0.0 0.0 1.0
  outer loop
    vertex       4.825000E-02   -4.000000E-03    0.000000E+00
    vertex       5.150000E-02   -3.750000E-03    0.000000E+00
    vertex       4.825000E-02   -3.750000E-03    0.000000E+00
  endloop
endfacet
facet normal 0.0 0.0 1.0
  outer loop
    vertex       4.825000E-02   -1.500000E-03    0.000000E+00
    vertex       5.150000E-02   -1.500000E-03    0.000000E+00
    vertex       5.150000E-02   -1.250000E-03    0.000000E+00
  endloop
endfacet
facet normal 0.0 0.0 1.0
  outer loop
    vertex       4.825000E-02   -1.500000E-03    0.000000E+00
    vertex       5.150000E-02   -1.250000E-03    0.000000E+00
    vertex       4.825000E-02   -1.250000E-03    0.000000E+00
  endloop
endfacet
facet normal 0.0 0.0 1.0
  outer loop
    vertex       4.825000E-02    9.999999E-04    0.000000E+00
    vertex       5.150000E-02    9.999999E-04    0.000000E+00
    vertex       5.150000E-02    1.250000E-03    0.000000E+00
  endloop
endfacet
facet normal 0.0 0.0 1.0
  outer loop
    vertex       4.825000E-02    9.999999E-04    0.000000E+00
    vertex       5.150000E-02    1.250000E-03    0.000000E+00
    vertex       4.825000E-02    1.250000E-03    0.000000E+00
  endloop
endfacet
facet normal 0.0 0.0 1.0
  outer loop
    vertex       4.825000E-02    3.500000E-03    0.000000E+00
    vertex       5.150000E-02    3.500000E-03    0.000000E+00
    vertex       5.150000E-02    3.750000E-03    0.000000E+00
  endloop
endfacet
facet normal 0.0 0.0 1.0
  outer loop
    vertex       4.825000E-02    3.500000E-03    0.000000E+00
    vertex       5.150000E-02    3.750000E-03    0.000000E+00
    vertex       4.825000E-02    3.750000E-03    0.000000E+00
  endloop
endfacet
facet normal 0.0 0.0 1.0
  outer loop
    vertex       4.825000E-02    6.000000E-03    0.000000E+00
    vertex       5.150000E-02    6.000000E-03    0.000000E+00
    vertex       5.150000E-02    6.250000E-03    0.000000E+00
  endloop
endfacet
facet normal 0.0 0.0 1.0
  outer loop
    vertex       4.825000E-02    6.000000E-03    0.000000E+00
    vertex       5.150000E-02    6.250000E-03    0.000000E+00
    vertex       4.825000E-02    6.250000E-03    0.000000E+00
  endloop
endfacet
facet normal 0.0 0.0 1.0
  outer loop
    vertex       4.850000E-02   -6.750000E-03    0.000000E+00
    vertex       5.125000E-02   -6.750000E-03    0.000000E+00
    vertex       5.125000E-02   -6.500000E-03    0.000000E+00
  endloop
endfacet
facet normal 0.0 0.0 1.0
  outer loop
    vertex       4.850000E-02   -6.750000E-03    0.000000E+00
    vertex       5.125000E-02   -6.500000E-03    0.000000E+00
    vertex       4.850000E-02   -6.500000E-03    0.000000E+00
  endloop
endfacet
facet normal 0.0 0.0 1.0
  outer loop
    vertex       4.850000E-02   -3.750000E-03    0.000000E+00
    vertex       5.125000E-02   -3.750000E-03    0.000000E+00
    vertex       5.125000E-02   -3.500000E-03    0.000000E+00
  endloop
endfacet
facet normal 0.0 0.0 1.0
  outer loop
    vertex       4.850000E-02   -3.750000E-03    0.000000E+00
    vertex       5.125000E-02   -3.500000E-03    0.000000E+00
    vertex       4.850000E-02   -3.500000E-03    0.000000E+00
  endloop
endfacet
facet normal 0.0 0.0 1.0
  outer loop
    vertex       4.850000E-02   -1.750000E-03    0.000000E+00
    vertex       5.125000E-02   -1.750000E-03    0.000000E+00
    vertex       5.125000E-02   -1.500000E-03    0.000000E+00
  endloop
endfacet
facet normal 0.0 0.0 1.0
  outer loop
    vertex       4.850000E-02   -1.750000E-03    0.000000E+00
    vertex       5.125000E-02   -1.500000E-03    0.000000E+00
    vertex       4.850000E-02   -1.500000E-03    0.000000E+00
  endloop
endfacet
facet normal 0.0 0.0 1.0
  outer loop
    vertex       4.850000E-02    1.250000E-03    0.000000E+00
    vertex       5.125000E-02    1.250000E-03    0.000000E+00
    vertex       5.125000E-02    1.500000E-03    0.000000E+00
  endloop
endfacet
facet normal 0.0 0.0 1.0
  outer loop
    vertex       4.850000E-02    1.250000E-03    0.000000E+00
    vertex       5.125000E-02    1.500000E-03    0.000000E+00
    vertex       4.850000E-02    1.500000E-03    0.000000E+00
  endloop
endfacet
facet normal 0.0 0.0 1.0
  outer loop
    vertex       4.850000E-02    3.250000E-03    0.000000E+00
    vertex       5.125000E-02    3.250000E-03    0.000000E+00
    vertex       5.125000E-02    3.500000E-03    0.000000E+00
  endloop
endfacet
facet normal 0.0 0.0 1.0
  outer loop
    vertex       4.850000E-02    3.250000E-03    0.000000E+00
    vertex       5.125000E-02    3.500000E-03    0.000000E+00
    vertex       4.850000E-02    3.500000E-03    0.000000E+00
  endloop
endfacet
facet normal 0.0 0.0 1.0
  outer loop
    vertex       4.850000E-02    6.250000E-03    0.000000E+00
    vertex       5.125000E-02    6.250000E-03    0.000000E+00
    vertex       5.125000E-02    6.500000E-03    0.000000E+00
  endloop
endfacet
facet normal 0.0 0.0 1.0
  outer loop
    vertex       4.850000E-02    6.250000E-03    0.000000E+00
    vertex       5.125000E-02    6.500000E-03    0.000000E+00
    vertex       4.850000E-02    6.500000E-03    0.000000E+00
  endloop
endfacet
facet normal 0.0 0.0 1.0
  outer loop
    vertex       4.900000E-02   -7.000000E-03    0.000000E+00
    vertex       5.075000E-02   -7.000000E-03    0.000000E+00
    vertex       5.075000E-02   -6.750000E-03    0.000000E+00
  endloop
endfacet
facet normal 0.0 0.0 1.0
  outer loop
    vertex       4.900000E-02   -7.000000E-03    0.000000E+00
    vertex       5.075000E-02   -6.750000E-03    0.000000E+00
    vertex       4.900000E-02   -6.750000E-03    0.000000E+00
  endloop
endfacet
facet normal 0.0 0.0 1.0
  outer loop
    vertex       4.900000E-02   -3.500000E-03    0.000000E+00
    vertex       5.075000E-02   -3.500000E-03    0.000000E+00
    vertex       5.075000E-02   -3.250000E-03    0.000000E+00
  endloop
endfacet
facet normal 0.0 0.0 1.0
  outer loop
    vertex       4.900000E-02   -3.500000E-03    0.000000E+00
    vertex       5.075000E-02   -3.250000E-03    0.000000E+00
    vertex       4.900000E-02   -3.250000E-03    0.000000E+00
  endloop
endfacet
facet normal 0.0 0.0 1.0
  outer loop
    vertex       4.900000E-02   -2.000000E-03    0.000000E+00
    vertex       5.075000E-02   -2.000000E-03    0.000000E+00
    vertex       5.075000E-02   -1.750000E-03    0.000000E+00
  endloop
endfacet
facet normal 0.0 0.0 1.0
  outer loop
    vertex       4.900000E-02   -2.000000E-03    0.000000E+00
    vertex       5.075000E-02   -1.750000E-03    0.000000E+00
    vertex       4.900000E-02   -1.750000E-03    0.000000E+00
  endloop
endfacet
facet normal 0.0 0.0 1.0
  outer loop
    vertex       4.900000E-02    1.500000E-03    0.000000E+00
    vertex       5.075000E-02    1.500000E-03    0.000000E+00
    vertex       5.075000E-02    1.750000E-03    0.000000E+00
  endloop
endfacet
facet normal 0.0 0.0 1.0
  outer loop
    vertex       4.900000E-02    1.500000E-03    0.000000E+00
    vertex       5.075000E-02    1.750000E-03    0.000000E+00
    vertex       4.900000E-02    1.750000E-03    0.000000E+00
  endloop
endfacet
facet normal 0.0 0.0 1.0
  outer loop
    vertex       4.900000E-02    3.000000E-03    0.000000E+00
    vertex       5.075000E-02    3.000000E-03    0.000000E+00
    vertex       5.075000E-02    3.250000E-03    0.000000E+00
  endloop
endfacet
facet normal 0.0 0.0 1.0
  outer loop
    vertex       4.900000E-02    3.000000E-03    0.000000E+00
    vertex       5.075000E-02    3.250000E-03    0.000000E+00
    vertex       4.900000E-02    3.250000E-03    0.000000E+00
  endloop
endfacet
facet normal 0.0 0.0 1.0
  outer loop
    vertex       4.900000E-02    6.500000E-03    0.000000E+00
    vertex       5.075000E-02    6.500000E-03    0.000000E+00
    vertex       5.075000E-02    6.750000E-03    0.000000E+00
  endloop
endfacet
facet normal 0.0 0.0 1.0
  outer loop
    vertex       4.900000E-02    6.500000E-03    0.000000E+00
    vertex       5.075000E-02    6.750000E-03    0.000000E+00
    vertex       4.900000E-02    6.750000E-03    0.000000E+00
  endloop
endfacet
facet normal 0.0 0.0 1.0
  outer loop
    vertex       4.975000E-02   -7.250000E-03    0.000000E+00
    vertex       5.000000E-02   -7.250000E-03    0.000000E+00
    vertex       5.000000E-02   -7.000000E-03    0.000000E+00
  endloop
endfacet
facet normal 0.0 0.0 1.0
  outer loop
    vertex       4.975000E-02   -7.250000E-03    0.000000E+00
    vertex       5.000000E-02   -7.000000E-03    0.000000E+00
    vertex       4.975000E-02   -7.000000E-03    0.000000E+00
  endloop
endfacet
facet normal 0.0 0.0 1.0
  outer loop
    vertex       4.975000E-02   -3.250000E-03    0.000000E+00
    vertex       5.000000E-02   -3.250000E-03    0.000000E+00
    vertex       5.000000E-02   -3.000000E-03    0.000000E+00
  endloop
endfacet
facet normal 0.0 0.0 1.0
  outer loop
    vertex       4.975000E-02   -3.250000E-03    0.000000E+00
    vertex       5.000000E-02   -3.000000E-03    0.000000E+00
    vertex       4.975000E-02   -3.000000E-03    0.000000E+00
  endloop
endfacet
facet normal 0.0 0.0 1.0
  outer loop
    vertex       4.975000E-02   -2.250000E-03    0.000000E+00
    vertex       5.000000E-02   -2.250000E-03    0.000000E+00
    vertex       5.000000E-02   -2.000000E-03    0.000000E+00
  endloop
endfacet
facet normal 0.0 0.0 1.0
  outer loop
    vertex       4.975000E-02   -2.250000E-03    0.000000E+00
    vertex       5.000000E-02   -2.000000E-03    0.000000E+00
    vertex       4.975000E-02   -2.000000E-03    0.000000E+00
  endloop
endfacet
facet normal 0.0 0.0 1.0
  outer loop
    vertex       4.975000E-02    1.750000E-03    0.000000E+00
    vertex       5.000000E-02    1.750000E-03    0.000000E+00
    vertex       5.000000E-02    2.000000E-03    0.000000E+00
  endloop
endfacet
facet normal 0.0 0.0 1.0
  outer loop
    vertex       4.975000E-02    1.750000E-03    0.000000E+00
    vertex       5.000000E-02    2.000000E-03    0.000000E+00
    vertex       4.975000E-02    2.000000E-03    0.000000E+00
  endloop
endfacet
facet normal 0.0 0.0 1.0
  outer loop
    vertex       4.975000E-02    2.750000E-03    0.000000E+00
    vertex       5.000000E-02    2.750000E-03    0.000000E+00
    vertex       5.000000E-02    3.000000E-03    0.000000E+00
  endloop
endfacet
facet normal 0.0 0.0 1.0
  outer loop
    vertex       4.975000E-02    2.750000E-03    0.000000E+00
    vertex       5.000000E-02    3.000000E-03    0.000000E+00
    vertex       4.975000E-02    3.000000E-03    0.000000E+00
  endloop
endfacet
facet normal 0.0 0.0 1.0
  outer loop
    vertex       4.975000E-02    6.750000E-03    0.000000E+00
    vertex       5.000000E-02    6.750000E-03    0.000000E+00
    vertex       5.000000E-02    7.000000E-03    0.000000E+00
  endloop
endfacet
facet normal 0.0 0.0 1.0
  outer loop
    vertex       4.975000E-02    6.750000E-03    0.000000E+00
    vertex       5.000000E-02    7.000000E-03    0.000000E+00
    vertex       4.975000E-02    7.000000E-03    0.000000E+00
  endloop
endfacet
endsolid
